<svg width="20" height="20" viewBox="0 0 20 20" fill="none" xmlns="http://www.w3.org/2000/svg">
<path d="M9.99995 16.8C6.23995 16.8 3.19995 13.76 3.19995 9.99995C3.19995 6.23995 6.23995 3.19995 9.99995 3.19995C13.76 3.19995 16.8 6.23995 16.8 9.99995C16.8 13.76 13.76 16.8 9.99995 16.8ZM9.99995 3.99995C6.67995 3.99995 3.99995 6.67995 3.99995 9.99995C3.99995 13.32 6.67995 16 9.99995 16C13.32 16 16 13.32 16 9.99995C16 6.67995 13.32 3.99995 9.99995 3.99995Z" fill="black"/>
<path d="M10.12 13.88L6.23999 9.99999L10.12 6.12L10.68 6.68L7.35999 9.99999L10.68 13.32L10.12 13.88Z" fill="black"/>
<path d="M6.80005 9.59998H13.6V10.4H6.80005V9.59998Z" fill="black"/>
</svg>
