<?xml version="1.0" encoding="UTF-8"?>
<svg xmlns="http://www.w3.org/2000/svg" xmlns:xlink="http://www.w3.org/1999/xlink" width="24px" height="24px" viewBox="0 0 24 24" version="1.1">
<g id="surface1">
<path style=" stroke:none;fill-rule:nonzero;fill:rgb(0%,0%,0%);fill-opacity:1;" d="M 14 7 L 14 0.460938 C 14.914062 0.804688 15.753906 1.339844 16.464844 2.050781 L 19.949219 5.535156 C 20.660156 6.246094 21.195312 7.085938 21.539062 8 L 15 8 C 14.449219 8 14 7.550781 14 7 Z M 22 10.484375 L 22 19 C 22 21.757812 19.757812 24 17 24 L 7 24 C 4.242188 24 2 21.757812 2 19 L 2 5 C 2 2.242188 4.242188 0 7 0 L 11.515625 0 C 11.679688 0 11.839844 0.0117188 12 0.0234375 L 12 7 C 12 8.652344 13.347656 10 15 10 L 21.976562 10 C 21.988281 10.160156 22 10.320312 22 10.484375 Z M 9 18 C 8.992188 16.691406 7.007812 16.691406 7 18 L 7 20 C 7.007812 21.308594 8.992188 21.308594 9 20 Z M 13 13 C 12.992188 11.691406 11.007812 11.691406 11 13 L 11 20 C 11.007812 21.308594 12.992188 21.308594 13 20 Z M 17 16 C 16.992188 14.691406 15.003906 14.691406 15 16 L 15 20 C 15.007812 21.308594 16.996094 21.308594 17 20 Z M 17 16 "/>
</g>
</svg>
