<?xml version="1.0" encoding="UTF-8"?>
<svg xmlns="http://www.w3.org/2000/svg" xmlns:xlink="http://www.w3.org/1999/xlink" width="24px" height="24px" viewBox="0 0 24 24" version="1.1">
<g id="surface1">
<path style=" stroke:none;fill-rule:nonzero;fill:rgb(0%,0%,0%);fill-opacity:1;" d="M 8 16.5 L 8 19.5 C 8 19.777344 7.777344 20 7.5 20 C 7.222656 20 7 19.777344 7 19.5 L 7 16.5 C 7 16.222656 7.222656 16 7.5 16 C 7.777344 16 8 16.222656 8 16.5 Z M 15.5 14 C 15.222656 14 15 14.222656 15 14.5 L 15 19.5 C 15 19.777344 15.222656 20 15.5 20 C 15.777344 20 16 19.777344 16 19.5 L 16 14.5 C 16 14.222656 15.777344 14 15.5 14 Z M 11.5 11 C 11.222656 11 11 11.222656 11 11.5 L 11 19.5 C 11 19.777344 11.222656 20 11.5 20 C 11.777344 20 12 19.777344 12 19.5 L 12 11.5 C 12 11.222656 11.777344 11 11.5 11 Z M 22 9.984375 L 22 19.5 C 22 21.980469 19.980469 24 17.5 24 L 6.5 24 C 4.019531 24 2 21.980469 2 19.5 L 2 4.5 C 2 2.019531 4.019531 0 6.5 0 L 12.015625 0 C 13.75 0 15.382812 0.675781 16.613281 1.902344 L 20.097656 5.390625 C 21.324219 6.617188 22 8.246094 22 9.984375 Z M 15.902344 2.609375 C 15.351562 2.058594 14.703125 1.640625 14 1.367188 L 14 6.5 C 14 7.328125 14.671875 8 15.5 8 L 20.632812 8 C 20.359375 7.292969 19.9375 6.648438 19.386719 6.097656 Z M 21 9.984375 C 21 9.652344 20.96875 9.324219 20.910156 9 L 15.5 9 C 14.121094 9 13 7.878906 13 6.5 L 13 1.089844 C 12.679688 1.03125 12.347656 1 12.015625 1 L 6.5 1 C 4.570312 1 3 2.570312 3 4.5 L 3 19.5 C 3 21.429688 4.570312 23 6.5 23 L 17.5 23 C 19.429688 23 21 21.429688 21 19.5 Z M 21 9.984375 "/>
</g>
</svg>
