<!DOCTYPE svg PUBLIC "-//W3C//DTD SVG 1.1//EN" "http://www.w3.org/Graphics/SVG/1.1/DTD/svg11.dtd">
<!-- Uploaded to: SVG Repo, www.svgrepo.com, Transformed by: SVG Repo Mixer Tools -->
<svg fill="#e60091" width="256px" height="256px" viewBox="-2 -2 24 24" xmlns="http://www.w3.org/2000/svg" preserveAspectRatio="xMinYMin" class="jam jam-database" stroke="#e60091" transform="matrix(-1, 0, 0, 1, 0, 0)">
<g id="SVGRepo_bgCarrier" stroke-width="0"/>
<g id="SVGRepo_tracerCarrier" stroke-linecap="round" stroke-linejoin="round"/>
<g id="SVGRepo_iconCarrier">
<path d="M3 12a1 1 0 0 0-1 1v4a1 1 0 0 0 1 1h14a1 1 0 0 0 1-1v-4a1 1 0 0 0-1-1H3zm0-2a3 3 0 0 1-3-3V3a3 3 0 0 1 3-3h14a3 3 0 0 1 3 3v4a3 3 0 0 1-3 3 3 3 0 0 1 3 3v4a3 3 0 0 1-3 3H3a3 3 0 0 1-3-3v-4a3 3 0 0 1 3-3zm0-8a1 1 0 0 0-1 1v4a1 1 0 0 0 1 1h14a1 1 0 0 0 1-1V3a1 1 0 0 0-1-1H3zm2 4a1 1 0 1 1 0-2 1 1 0 0 1 0 2zm3 0a1 1 0 1 1 0-2 1 1 0 0 1 0 2zm0 10a1 1 0 1 1 0-2 1 1 0 0 1 0 2zm-3 0a1 1 0 1 1 0-2 1 1 0 0 1 0 2z"/>
</g>
</svg>