<svg width="19" height="19" viewBox="0 0 19 19" fill="none" xmlns="http://www.w3.org/2000/svg">
<path d="M9.49996 3.16663C6.00158 3.16663 3.16663 6.00238 3.16663 9.49996C3.16663 12.9975 6.00158 15.8333 9.49996 15.8333C12.9983 15.8333 15.8333 12.9975 15.8333 9.49996C15.8333 6.00238 12.9983 3.16663 9.49996 3.16663ZM12.4347 11.3153C12.5831 11.4637 12.6665 11.665 12.6665 11.875C12.6665 12.0849 12.5831 12.2862 12.4347 12.4347C12.2862 12.5831 12.0849 12.6665 11.875 12.6665C11.665 12.6665 11.4637 12.5831 11.3153 12.4347L9.49996 10.6194L7.68467 12.4347C7.61132 12.5084 7.52411 12.567 7.42805 12.6069C7.332 12.6469 7.22899 12.6674 7.12496 12.6674C7.02093 12.6674 6.91792 12.6469 6.82187 12.6069C6.72581 12.567 6.6386 12.5084 6.56525 12.4347C6.49167 12.3612 6.43329 12.274 6.39346 12.1779C6.35363 12.0819 6.33313 11.9789 6.33313 11.875C6.33313 11.771 6.35363 11.668 6.39346 11.572C6.43329 11.476 6.49167 11.3887 6.56525 11.3153L8.38054 9.49996L6.56525 7.68467C6.41681 7.53622 6.33341 7.33489 6.33341 7.12496C6.33341 6.91503 6.41681 6.7137 6.56525 6.56525C6.7137 6.41681 6.91503 6.33341 7.12496 6.33341C7.33489 6.33341 7.53622 6.41681 7.68467 6.56525L9.49996 8.38054L11.3153 6.56525C11.4637 6.41681 11.665 6.33341 11.875 6.33341C12.0849 6.33341 12.2862 6.41681 12.4347 6.56525C12.5831 6.7137 12.6665 6.91503 12.6665 7.12496C12.6665 7.33489 12.5831 7.53622 12.4347 7.68467L10.6194 9.49996L12.4347 11.3153Z" fill="#FF2929"/>
</svg>
