<svg width="22" height="22" viewBox="0 0 22 22" fill="none" xmlns="http://www.w3.org/2000/svg">
<g clip-path="url(#clip0_32_370)">
<path d="M15.3214 0.785706L12.5714 9.42856L21.2143 6.67856C21.2143 5.11568 20.5934 3.61681 19.4883 2.51168C18.3832 1.40656 16.8843 0.785706 15.3214 0.785706Z" stroke="white" stroke-linecap="round" stroke-linejoin="round"/>
<path d="M11.7857 0.817134L11 0.785706C8.9798 0.785706 7.00497 1.38476 5.32524 2.50712C3.64551 3.62948 2.33632 5.22474 1.56323 7.09115C0.790131 8.95757 0.587854 11.0113 0.981975 12.9927C1.3761 14.9741 2.34891 16.7941 3.77741 18.2226C5.2059 19.6511 7.02591 20.6239 9.00729 21.018C10.9887 21.4121 13.0424 21.2099 14.9088 20.4368C16.7752 19.6637 18.3705 18.3545 19.4929 16.6747C20.6152 14.995 21.2143 13.0202 21.2143 11V10.2143" stroke="white" stroke-linecap="round" stroke-linejoin="round"/>
<path d="M8.64286 15.7143C9.0768 15.7143 9.42858 15.3625 9.42858 14.9285C9.42858 14.4946 9.0768 14.1428 8.64286 14.1428C8.20892 14.1428 7.85715 14.4946 7.85715 14.9285C7.85715 15.3625 8.20892 15.7143 8.64286 15.7143Z" stroke="white" stroke-linecap="round" stroke-linejoin="round"/>
<path d="M6.28571 8.64284C6.71965 8.64284 7.07143 8.29106 7.07143 7.85713C7.07143 7.42319 6.71965 7.07141 6.28571 7.07141C5.85178 7.07141 5.5 7.42319 5.5 7.85713C5.5 8.29106 5.85178 8.64284 6.28571 8.64284Z" stroke="white" stroke-linecap="round" stroke-linejoin="round"/>
<path d="M16.5 13.3571C16.9339 13.3571 17.2857 13.0054 17.2857 12.5714C17.2857 12.1375 16.9339 11.7857 16.5 11.7857C16.0661 11.7857 15.7143 12.1375 15.7143 12.5714C15.7143 13.0054 16.0661 13.3571 16.5 13.3571Z" stroke="white" stroke-linecap="round" stroke-linejoin="round"/>
</g>
<defs>
<clipPath id="clip0_32_370">
<rect width="22" height="22" fill="white"/>
</clipPath>
</defs>
</svg>
