<svg width="20" height="20" viewBox="0 0 20 20" fill="none" xmlns="http://www.w3.org/2000/svg">
<path d="M4.16667 2.5C3.72464 2.5 3.30072 2.67559 2.98816 2.98816C2.67559 3.30072 2.5 3.72464 2.5 4.16667V15.8333C2.5 16.2754 2.67559 16.6993 2.98816 17.0118C3.30072 17.3244 3.72464 17.5 4.16667 17.5H10.675C10.375 16.9833 10.1667 16.4167 10.0667 15.8333H4.16667V4.16667H13.475L15.8333 6.525V10.0667C16.4167 10.1667 16.9833 10.375 17.5 10.675V5.83333L14.1667 2.5H4.16667ZM5 5V8.33333H12.5V5H5ZM10 10C8.61667 10 7.5 11.1167 7.5 12.5C7.5 13.8833 8.61667 15 10 15C10 13.425 10.7417 11.95 11.9917 11.0083C11.5417 10.4167 10.8333 10 10 10ZM14.1667 11.6667V14.1667H11.6667V15.8333H14.1667V18.3333H15.8333V15.8333H18.3333V14.1667H15.8333V11.6667H14.1667Z" fill="black"/>
</svg>
