<svg width="15" height="15" viewBox="0 0 15 15" fill="none" xmlns="http://www.w3.org/2000/svg">
<path d="M7.5 1.25C4.04375 1.25 1.25 4.04375 1.25 7.5C1.25 10.9562 4.04375 13.75 7.5 13.75C10.9562 13.75 13.75 10.9562 13.75 7.5C13.75 4.04375 10.9562 1.25 7.5 1.25ZM9.4375 4.41875C9.525 4.41875 9.6125 4.45 9.6875 4.51875L10.4812 5.3125C10.625 5.45 10.625 5.66875 10.4812 5.8L9.85625 6.425L8.575 5.14375L9.2 4.51875C9.2625 4.45 9.35 4.41875 9.4375 4.41875ZM8.20625 5.50625L9.49375 6.79375L5.70625 10.5812H4.41875V9.29375L8.20625 5.50625Z" fill="#4685FF"/>
</svg>
