<?xml version="1.0" encoding="UTF-8"?>
<svg xmlns="http://www.w3.org/2000/svg" xmlns:xlink="http://www.w3.org/1999/xlink" width="24px" height="24px" viewBox="0 0 24 24" version="1.1">
<g id="surface1">
<path style=" stroke:none;fill-rule:nonzero;fill:rgb(0%,0%,0%);fill-opacity:1;" d="M 2 23 C 2 23.550781 1.550781 24 1 24 C 0.449219 24 0 23.550781 0 23 C 0 22.449219 0.449219 22 1 22 C 1.550781 22 2 22.449219 2 23 Z M 0.539062 17.019531 C 0.285156 17.003906 0.0234375 17.203125 0 17.480469 C -0.0195312 17.757812 0.1875 17.996094 0.460938 18.019531 C 3.386719 18.242188 5.761719 20.613281 5.984375 23.539062 C 6.003906 23.800781 6.222656 24 6.480469 24 C 6.496094 24 6.507812 24 6.519531 24 C 6.796875 23.980469 7 23.738281 6.980469 23.464844 C 6.71875 20.050781 3.949219 17.28125 0.539062 17.023438 Z M 0.519531 12.011719 C 0.203125 12.007812 0.0117188 12.214844 0 12.488281 C -0.0117188 12.765625 0.203125 13 0.480469 13.011719 C 6.132812 13.253906 10.75 17.867188 10.988281 23.523438 C 11.003906 23.789062 11.222656 24 11.488281 24 L 11.511719 24 C 11.785156 23.988281 12 23.757812 11.988281 23.480469 C 11.726562 17.3125 6.6875 12.277344 0.523438 12.011719 Z M 22.175781 3.984375 L 17.316406 0.710938 C 15.910156 -0.242188 14.089844 -0.242188 12.683594 0.710938 L 7.828125 3.984375 C 6.683594 4.757812 6 6.039062 6 7.421875 L 6 10.5 C 6 10.777344 6.226562 11 6.5 11 C 6.777344 11 7 10.777344 7 10.5 L 7 7.421875 C 7 6.375 7.519531 5.398438 8.386719 4.816406 L 13.242188 1.539062 C 14.308594 0.816406 15.691406 0.816406 16.761719 1.539062 L 21.617188 4.816406 C 22.484375 5.402344 23 6.375 23 7.421875 L 23 14.261719 C 23 15.773438 21.773438 17 20.261719 17 L 13.5 17 C 13.226562 17 13 17.222656 13 17.5 C 13 17.777344 13.226562 18 13.5 18 L 20.261719 18 C 22.324219 18 24 16.324219 24 14.261719 L 24 7.421875 C 24 6.039062 23.316406 4.757812 22.175781 3.984375 Z M 14 13 C 13.171875 13 12.5 12.328125 12.5 11.5 L 12.5 9.5 C 12.5 8.671875 13.171875 8 14 8 L 16 8 C 16.828125 8 17.5 8.671875 17.5 9.5 L 17.5 11.5 C 17.5 12.328125 16.828125 13 16 13 Z M 14 12 L 16 12 C 16.273438 12 16.5 11.773438 16.5 11.5 L 16.5 9.5 C 16.5 9.226562 16.273438 9 16 9 L 14 9 C 13.726562 9 13.5 9.226562 13.5 9.5 L 13.5 11.5 C 13.5 11.773438 13.726562 12 14 12 Z M 14 12 "/>
</g>
</svg>
