<svg width="30" height="30" viewBox="0 0 30 30" fill="none" xmlns="http://www.w3.org/2000/svg">
<path d="M12.9128 20.7411H5.03687" stroke="white" stroke-width="1.5" stroke-linecap="round" stroke-linejoin="round"/>
<path d="M16.4255 8.62549H24.3014" stroke="white" stroke-width="1.5" stroke-linecap="round" stroke-linejoin="round"/>
<path fill-rule="evenodd" clip-rule="evenodd" d="M10.9079 8.55781C10.9079 6.93825 9.58516 5.625 7.95393 5.625C6.3227 5.625 5 6.93825 5 8.55781C5 10.1774 6.3227 11.4906 7.95393 11.4906C9.58516 11.4906 10.9079 10.1774 10.9079 8.55781Z" stroke="white" stroke-width="1.5" stroke-linecap="round" stroke-linejoin="round"/>
<path fill-rule="evenodd" clip-rule="evenodd" d="M25 20.6923C25 19.0726 23.6783 17.7594 22.047 17.7594C20.4148 17.7594 19.0922 19.0726 19.0922 20.6923C19.0922 22.3118 20.4148 23.625 22.047 23.625C23.6783 23.625 25 22.3118 25 20.6923Z" stroke="white" stroke-width="1.5" stroke-linecap="round" stroke-linejoin="round"/>
</svg>
