<svg width="20" height="20" viewBox="0 0 20 20" fill="none" xmlns="http://www.w3.org/2000/svg">
<path d="M10 15C8.72222 15 7.6087 14.5763 6.65944 13.7289C5.71019 12.8815 5.1663 11.8237 5.02778 10.5556H6.16667C6.2963 11.5185 6.72463 12.3148 7.45167 12.9444C8.1787 13.5741 9.02815 13.8889 10 13.8889C11.0833 13.8889 12.0024 13.5115 12.7572 12.7567C13.512 12.0019 13.8893 11.083 13.8889 10C13.8889 8.91667 13.5115 7.99759 12.7567 7.24278C12.0019 6.48796 11.083 6.11074 10 6.11111C9.36111 6.11111 8.76389 6.25926 8.20833 6.55556C7.65278 6.85185 7.18519 7.25926 6.80556 7.77778H8.33333V8.88889H5V5.55556H6.11111V6.86111C6.58333 6.26852 7.15981 5.81019 7.84056 5.48611C8.5213 5.16204 9.24111 5 10 5C10.6944 5 11.345 5.13204 11.9517 5.39611C12.5583 5.66019 13.0861 6.01648 13.535 6.465C13.9839 6.91426 14.3404 7.44204 14.6044 8.04833C14.8685 8.65463 15.0004 9.30518 15 10C15 10.6944 14.868 11.345 14.6039 11.9517C14.3398 12.5583 13.9835 13.0861 13.535 13.535C13.0857 13.9839 12.558 14.3404 11.9517 14.6044C11.3454 14.8685 10.6948 15.0004 10 15ZM11.5556 12.3333L9.44444 10.2222V7.22222H10.5556V9.77778L12.3333 11.5556L11.5556 12.3333Z" fill="#266EF1"/>
<path opacity="0.4" d="M14.334 0H5.665C2.276 0 0 2.378 0 5.917V14.084C0 17.622 2.276 20 5.665 20H14.333C17.722 20 20 17.622 20 14.084V5.917C20 2.378 17.723 0 14.334 0Z" fill="#266EF1"/>
</svg>
