<svg width="28" height="28" viewBox="0 0 28 28" fill="none" xmlns="http://www.w3.org/2000/svg">
<path d="M2.44302 10.0552C2.40552 10.0551 2.36837 10.0632 2.33371 10.0791C2.29904 10.095 2.26753 10.1185 2.241 10.148C2.21447 10.1775 2.19343 10.2127 2.17909 10.2513C2.16476 10.2899 2.15741 10.3314 2.15747 10.3732V10.8482C2.15747 11.0217 2.28209 11.1666 2.44302 11.1666C2.51857 11.166 2.59085 11.1322 2.64428 11.0726C2.6977 11.0131 2.72797 10.9324 2.72856 10.8482V10.3732C2.72868 10.3313 2.72137 10.2898 2.70706 10.2511C2.69276 10.2124 2.67173 10.1773 2.64519 10.1477C2.61865 10.1181 2.58713 10.0946 2.55243 10.0787C2.51773 10.0627 2.48055 10.0551 2.44302 10.0552Z" fill="#FF39B0"/>
<path d="M9.14907 6.09047C9.38665 6.03047 9.63768 5.99547 9.89319 6.00047C11.5876 6.02097 12.9773 7.56041 12.9997 9.45034C13.0107 10.2888 12.7508 11.1038 12.2676 11.7462C12.4537 12.2192 12.551 12.7312 12.5514 13.2502V15.5201C12.5512 15.9076 12.4784 16.2908 12.3376 16.6451L11.2106 19.5819C11.1653 19.707 11.0872 19.8138 10.9865 19.8884C10.8858 19.963 10.7672 20.0019 10.6463 19.9999H9.66906C9.51152 20.0005 9.35985 19.9332 9.24569 19.8121C9.13152 19.6911 9.06367 19.5255 9.05628 19.35C9.0518 19.234 9.07421 19.119 9.12083 19.016L9.65875 17.616L9.38352 17.309L8.84963 19.8099C8.82274 19.9199 8.73308 19.9999 8.62998 19.9999H7.67518C7.64949 19.9999 7.62415 19.9932 7.60114 19.9805C7.57813 19.9677 7.55806 19.9492 7.54249 19.9264C7.52693 19.9492 7.50686 19.9677 7.48385 19.9805C7.46084 19.9932 7.4355 19.9999 7.40981 19.9999H6.45501C6.3519 19.9999 6.26225 19.9199 6.23536 19.8099L5.83192 17.92V19.31C5.8318 19.4929 5.76659 19.6683 5.6506 19.7977C5.53462 19.9271 5.37734 19.9998 5.21331 19.9999H4.20472C4.04136 20.0005 3.88449 19.9287 3.76851 19.8004C3.65254 19.6721 3.58694 19.4977 3.58611 19.3155V16.4061C3.07271 16.2506 2.61962 15.9106 2.29706 15.4387C1.97451 14.9669 1.8005 14.3895 1.80202 13.7962V13.4502C1.29373 13.3343 0.836865 13.0263 0.508563 12.5782C0.18026 12.1301 0.000630359 11.5694 0 10.9908V10.8808C0.000316756 10.6811 0.061368 10.4875 0.173169 10.3315C0.28497 10.1756 0.440903 10.0666 0.615467 10.0223C0.716852 9.53695 0.915924 9.08367 1.19761 8.69681C1.47929 8.30995 1.83621 7.99965 2.24132 7.7894V6.79594C2.24156 6.65298 2.2807 6.51346 2.35358 6.39585C2.42646 6.27824 2.52963 6.18808 2.64945 6.1373C2.76927 6.08652 2.90009 6.07751 3.0246 6.11146C3.14911 6.14542 3.26145 6.22074 3.34674 6.32746L5.16131 8.58237C5.59314 9.12314 5.83235 9.82164 5.83371 10.5458V10.9008L7.72225 9.87582C8.39424 9.51353 9.15516 9.41073 9.88526 9.58361C10.6154 9.75649 11.2732 10.1952 11.7553 10.8308C11.9609 10.4688 12.0792 10.0538 12.0987 9.62583C12.1659 8.19039 11.1349 7.00043 9.86181 7.00043C9.69147 7.00043 9.52113 7.02043 9.35976 7.06543C9.26956 7.08765 9.17543 7.07847 9.09006 7.03913C9.00469 6.99979 8.93219 6.93218 8.88236 6.84544C8.88101 6.84394 8.88011 6.84294 8.88011 6.84044C8.84066 6.77427 8.81621 6.69839 8.80887 6.61935C8.80153 6.5403 8.81152 6.46044 8.83798 6.38666C8.86444 6.31287 8.90658 6.24736 8.96077 6.19577C9.01497 6.14417 9.07959 6.10804 9.14907 6.09047ZM7.54249 19.6399L8.21175 16.5001H6.87324L7.54249 19.6399ZM9.94205 19.414L9.93309 19.4375C9.93675 19.4301 9.93976 19.4224 9.94205 19.4145V19.414ZM10.3903 19.179C10.3845 19.1913 10.3795 19.2042 10.3755 19.2175L10.3903 19.179ZM10.1012 19H10.4598L11.5164 16.2431C11.6076 16.0158 11.6548 15.7696 11.6549 15.5206V13.2507C11.6542 12.5623 11.4223 11.8991 11.0049 11.392C10.5875 10.8848 10.015 10.5704 9.4001 10.5108V11.6908C9.4001 11.9657 9.19838 12.1907 8.95184 12.1907C8.70529 12.1907 8.50357 11.9657 8.50357 11.6908V10.6083C8.3696 10.6512 8.23914 10.7068 8.11358 10.7743L8.05979 10.8038V12.1057C8.05979 12.3807 7.85807 12.6057 7.61153 12.6057C7.36498 12.6057 7.16326 12.3807 7.16326 12.1057V11.2903L6.72396 11.5288V12.5207C6.72396 12.7957 6.52225 13.0207 6.2757 13.0207C6.02915 13.0207 5.82744 12.7957 5.82744 12.5207V11.9942C5.72116 12.023 5.61042 12.0244 5.50358 11.9983C5.39675 11.9723 5.29661 11.9196 5.21074 11.844C5.12486 11.7685 5.05549 11.6723 5.00787 11.5625C4.96025 11.4527 4.93562 11.3322 4.93584 11.2103V11.0008H4.70677C4.46023 11.0008 4.25851 10.7758 4.25851 10.5008C4.25851 10.2258 4.46023 10.0008 4.70677 10.0008H4.86636C4.82047 9.82443 4.75257 9.65612 4.66464 9.50084H4.03438C3.78783 9.50084 3.58611 9.27585 3.58611 9.00086C3.58611 8.77437 3.72283 8.58187 3.90886 8.52087L3.13785 7.56541V8.55037L2.79 8.63937C2.44698 8.76699 2.14185 8.99695 1.9077 9.30429C1.67356 9.61164 1.51934 9.98463 1.46179 10.3828C1.44145 10.4956 1.39872 10.6019 1.33672 10.6938C1.33233 10.707 1.3263 10.7195 1.31879 10.7308L0.928804 11.3158C0.9953 11.6501 1.16158 11.9493 1.40043 12.1645C1.63928 12.3797 1.93654 12.498 2.24356 12.5002H2.8913C3.2916 12.5002 3.64215 12.7482 3.81114 13.1182L4.48264 14.3546V19H4.93539V16.2506H4.93091V14.3256H7.25561C7.80742 14.3256 8.33503 14.5956 8.69184 15.0701L9.3499 15.8566L10.3536 16.9765C10.4636 17.098 10.5378 17.254 10.5664 17.4237C10.595 17.5934 10.5766 17.7688 10.5136 17.9265L10.1012 19ZM8.43858 15.5001L8.35609 15.4011L8.35161 15.3961C8.21753 15.2173 8.04987 15.0735 7.86048 14.9749C7.67109 14.8764 7.4646 14.8254 7.25561 14.8256H5.37917V15.5006L8.43858 15.5001ZM3.09392 14.9426C3.33886 15.2439 3.67254 15.4373 4.03438 15.4876V14.4941L3.41846 13.3602L3.41398 13.3512C3.36469 13.2443 3.28968 13.1549 3.19736 13.0929C3.10504 13.0309 2.99906 12.9988 2.8913 13.0002H2.69855V13.7952C2.6974 14.2193 2.83841 14.6285 3.09392 14.9426Z" fill="#FF39B0"/>
<path d="M19.1509 11.532L19.1334 11.5495L19.1392 11.5728L19.1625 11.5798L19.18 11.5623L19.1742 11.539L19.1509 11.532ZM18.0589 10.951L17.9655 11.021L17.9702 11.1365L18.0705 11.1878L18.1639 11.126L18.1592 11.0152L18.0589 10.951ZM19.0482 9.73767L19.2454 9.77267L19.1019 9.64433L19.0062 9.52767V9.70267L19.019 9.74117L19.0482 9.73767ZM19.0319 10.8343L19.0085 10.8693L19.026 10.9125L19.068 10.9148L19.0914 10.8798L19.0727 10.8437L19.0319 10.8343ZM18.361 10.776L18.3237 10.8227L18.3412 10.8787L18.3972 10.8903L18.4345 10.8495L18.417 10.797L18.361 10.776ZM18.9187 10.461L18.9817 10.2848L18.858 10.1402L18.6714 10.1752L18.6072 10.356L18.732 10.5007L18.9187 10.461ZM18.6772 11.9777L18.7589 12.1527L18.9514 12.176L19.0657 12.0197L18.9864 11.8388L18.7915 11.819L18.6772 11.9777ZM17.9585 12.0652V12.1118L17.9994 12.1352L18.039 12.1118V12.0652L17.9994 12.0418L17.9585 12.0652ZM17.0555 9.92317L17.0742 9.88583L17.0509 9.85083H17.0077L16.989 9.8905L17.0124 9.9255L17.0555 9.92317ZM16.6099 12.4548L16.5865 12.5668L16.6682 12.6438L16.7767 12.61L16.8024 12.4992L16.7184 12.4222L16.6099 12.4548ZM17.2364 10.7597L17.2014 10.6173L17.0614 10.5777L16.9564 10.6792L16.9914 10.8192L17.1314 10.8612L17.2364 10.7597ZM18.0192 12.7173V12.729L18.0285 12.7348L18.039 12.729V12.7173L18.0274 12.7115L18.0192 12.7173ZM18.4322 10.1203L18.4264 10.1717L18.4684 10.2032L18.515 10.1822L18.522 10.1308L18.48 10.1005L18.4322 10.1203ZM17.2375 12.6298L17.178 12.7068L17.2154 12.7967L17.3122 12.8083L17.3717 12.7325L17.3344 12.6427L17.2375 12.6298ZM17.3367 11.8575L17.2772 11.6977L17.1092 11.6743L16.9995 11.812L17.059 11.9718L17.2282 12.001L17.3367 11.8575ZM24.6377 21.8232L24.7765 12.6928C24.7927 12.5902 24.8012 12.4864 24.8022 12.3825C24.8022 12.3288 24.7952 12.2775 24.7905 12.225L24.9025 5.77917L24.7859 5.89583V6.0125L24.661 11.7443C24.6144 11.6662 24.5595 11.6078 24.4884 11.6078C24.4172 11.6078 24.3274 11.6813 24.2714 11.8167C24.2623 11.7325 24.2344 11.6515 24.1897 11.5797C24.1451 11.5078 24.0849 11.4468 24.0135 11.4013C24.0449 11.3196 24.0538 11.231 24.0396 11.1447C24.0253 11.0584 23.9882 10.9774 23.9323 10.9102C23.8763 10.8429 23.8034 10.7918 23.7211 10.762C23.6388 10.7323 23.5501 10.725 23.464 10.741C23.4465 10.5077 23.3007 10.3233 23.1234 10.3233C23.0525 10.3241 22.9846 10.3516 22.9332 10.4003C22.9836 10.3361 23.0111 10.2568 23.0114 10.1752C23.0034 10.0667 22.9565 9.96485 22.8793 9.88829C22.8021 9.81174 22.6999 9.7657 22.5914 9.75867C22.5179 9.69175 22.4224 9.65435 22.323 9.65367C22.2546 9.65365 22.1874 9.67176 22.1282 9.70617C22.0722 9.4985 21.9509 9.36783 21.8249 9.36783C21.6965 9.36783 21.5915 9.4845 21.5297 9.66883C21.4861 9.58795 21.4214 9.52034 21.3426 9.47312C21.2637 9.42589 21.1736 9.40081 21.0817 9.4005C21.0333 9.39886 20.985 9.40436 20.9382 9.41683L20.9324 9.40867C20.8959 9.35667 20.8496 9.31239 20.796 9.27836C20.7424 9.24434 20.6826 9.22124 20.62 9.2104C20.5575 9.19956 20.4934 9.20118 20.4315 9.21519C20.3695 9.22919 20.311 9.2553 20.2592 9.292C20.2195 9.05517 20.0865 8.88367 19.9244 8.88367C19.8613 8.88959 19.8012 8.91369 19.7515 8.95303C19.7018 8.99237 19.6646 9.04527 19.6444 9.10533L19.6257 9.09367C19.5257 9.0026 19.3987 8.94651 19.264 8.93383C19.2037 8.92704 19.1426 8.93472 19.0858 8.95622C19.029 8.97773 18.9781 9.01244 18.9374 9.0575C18.8908 9.11309 18.8619 9.18136 18.8545 9.2535L18.8114 9.23483C18.7803 9.14025 18.7222 9.05682 18.6443 8.99478C18.5665 8.93274 18.4721 8.89481 18.373 8.88564C18.2739 8.87647 18.1742 8.89646 18.0863 8.94316C17.9983 8.98986 17.926 9.06123 17.878 9.1485C17.8273 9.06226 17.7525 8.99276 17.6627 8.94858C17.573 8.9044 17.4723 8.88746 17.373 8.89987C17.2737 8.91228 17.1803 8.95349 17.1042 9.0184C17.028 9.08332 16.9726 9.1691 16.9447 9.26517C16.8827 9.19004 16.7973 9.13777 16.7022 9.11664C16.6071 9.0955 16.5077 9.10672 16.4197 9.1485C16.3558 9.17965 16.3002 9.22549 16.2574 9.28227C16.2146 9.33905 16.1859 9.40515 16.1735 9.47517C16.0913 9.48347 16.0128 9.51343 15.946 9.56201C15.8792 9.61059 15.8264 9.67604 15.7932 9.75167C15.763 9.7421 15.7315 9.73699 15.6999 9.7365C15.655 9.73665 15.6107 9.74565 15.5693 9.76299C15.528 9.78032 15.4904 9.80565 15.4589 9.83752C15.4274 9.86938 15.4024 9.90716 15.3855 9.94869C15.3686 9.99021 15.3601 10.0347 15.3604 10.0795C15.3607 10.1086 15.3646 10.1376 15.372 10.1658C15.2928 10.1959 15.2267 10.2529 15.1854 10.3268C15.0905 10.343 15.0023 10.3863 14.9315 10.4515C14.8606 10.5167 14.8103 10.6011 14.7864 10.6943C14.7247 10.6701 14.659 10.6579 14.5927 10.6582C14.5297 10.6565 14.467 10.6672 14.4082 10.6897C14.3494 10.7122 14.2956 10.7461 14.2498 10.7895C14.2041 10.8328 14.1674 10.8847 14.1417 10.9423C14.1161 10.9998 14.102 11.0619 14.1004 11.1248C14.1017 11.2017 14.1219 11.2771 14.1594 11.3443C14.1968 11.4114 14.2503 11.4683 14.315 11.5098C14.2592 11.5472 14.2126 11.5966 14.1785 11.6545C14.1265 11.6149 14.0631 11.5933 13.9977 11.5927C13.7784 11.5927 13.608 11.84 13.608 12.1527C13.607 12.2379 13.6204 12.3227 13.6477 12.4035C13.5936 12.4352 13.5485 12.4801 13.5165 12.5339C13.4844 12.5878 13.4666 12.6489 13.4645 12.7115C13.4646 12.7391 13.4681 12.7665 13.475 12.7932L13.4669 12.8072C13.4459 12.8585 13.4972 12.897 13.5357 12.9238C13.531 13.5363 13.5882 14.7905 13.4109 14.8803V14.8885C13.3735 14.9037 13.3129 14.8407 13.2592 14.78L13.1425 14.71C13.1647 15.326 13.3514 20.226 13.384 22.3248C13.384 22.3248 13.4797 23.3072 15.505 24.0748C15.4281 24.5706 15.4175 25.0743 15.4735 25.5728C15.5692 26.1865 16.1969 26.5062 16.5865 26.7628C17.3355 27.2505 20.6174 27.3462 21.9532 27.247C25.7682 26.9495 26.2699 26.9227 26.663 26.3522V23.6665C26.6677 22.459 26.0039 22.5138 24.6237 21.8208L24.6377 21.8232ZM14.3512 12.5283V12.5213L14.3745 12.4852L14.3442 12.4537L14.3244 12.4303L14.266 12.3603L14.2345 12.4408C14.2272 12.4559 14.2195 12.4707 14.2112 12.4852V12.4968C14.0829 12.4677 13.9534 12.4502 13.8262 12.4175L13.7795 12.4012V12.393C13.7495 12.3188 13.7336 12.2397 13.7329 12.1597C13.7329 11.9123 13.8659 11.7117 14.0129 11.7117C14.0434 11.7132 14.0732 11.721 14.1005 11.7347C14.1278 11.7483 14.152 11.7675 14.1715 11.791L14.2299 11.868L14.2637 11.7863C14.2779 11.7396 14.3029 11.6969 14.3365 11.6614C14.3701 11.626 14.4115 11.5989 14.4574 11.5822L14.5145 11.5717L14.5752 11.6067C14.6021 11.6214 14.6256 11.6417 14.644 11.6662L14.7094 11.7292L14.742 11.8295C14.783 11.9632 14.787 12.1055 14.7537 12.2413L14.7304 12.3113H14.8984L14.8774 12.2413C14.872 12.2043 14.8696 12.1668 14.8704 12.1293C14.8705 12.0495 14.8856 11.9703 14.9147 11.896L14.9322 11.8423L14.8855 11.819C14.8603 11.8066 14.8367 11.7909 14.8155 11.7723L14.7479 11.7047L14.7292 11.6137C14.728 11.5942 14.728 11.5748 14.7292 11.5553V11.4748L14.6592 11.4865C14.6372 11.4899 14.615 11.4923 14.5927 11.4935H14.5227L14.4527 11.4702C14.3812 11.4479 14.3185 11.4037 14.2734 11.3438C14.2284 11.2839 14.2034 11.2114 14.2019 11.1365C14.207 11.0396 14.25 10.9487 14.3216 10.8832C14.3932 10.8177 14.4876 10.783 14.5845 10.7865C14.6577 10.787 14.7294 10.8072 14.7922 10.8448L14.875 10.8868V10.7865C14.8818 10.6959 14.9208 10.6107 14.985 10.5465C15.0493 10.4823 15.1344 10.4432 15.225 10.4365H15.2507L15.2624 10.4062C15.2802 10.3716 15.3052 10.3413 15.3358 10.3173C15.3664 10.2934 15.4019 10.2763 15.4397 10.2673L15.5015 10.2475L15.4747 10.1903C15.4628 10.163 15.456 10.1338 15.4549 10.104C15.4538 10.0734 15.4587 10.0428 15.4695 10.0141C15.4802 9.98534 15.4965 9.95901 15.5174 9.93658C15.5383 9.91415 15.5634 9.89606 15.5913 9.88335C15.6192 9.87064 15.6494 9.86355 15.68 9.8625C15.7153 9.86242 15.7501 9.87083 15.7815 9.887L15.8399 9.9185L15.8597 9.8555C15.8816 9.7819 15.9267 9.71736 15.9883 9.67152C16.05 9.62568 16.1247 9.601 16.2015 9.60117H16.2645V9.54983C16.2691 9.4908 16.2892 9.43402 16.3228 9.38526C16.3564 9.3365 16.4023 9.29748 16.4559 9.27217C16.5356 9.23624 16.6262 9.23338 16.708 9.26422C16.7898 9.29505 16.8561 9.35707 16.8922 9.43667C16.8922 9.45067 16.9039 9.46583 16.9062 9.481L16.9179 9.52183H17.0182V9.4215C17.0181 9.32321 17.0538 9.22825 17.1187 9.15443C17.1836 9.08062 17.2732 9.03302 17.3707 9.02056C17.4682 9.00811 17.5669 9.03165 17.6483 9.08678C17.7296 9.14191 17.7881 9.22483 17.8127 9.32L17.8384 9.4215L17.8127 9.523C17.8091 9.53848 17.8044 9.55368 17.7987 9.5685V9.61283C17.7989 9.64965 17.7917 9.68613 17.7777 9.72017L17.7474 9.79717H18.1102L18.0215 9.70383C17.976 9.65217 17.9439 9.59005 17.9282 9.523L17.8955 9.42383L17.9212 9.32233C17.9423 9.23604 17.9914 9.15917 18.0609 9.10371C18.1303 9.04824 18.2161 9.0173 18.3049 9.0157C18.3937 9.0141 18.4806 9.04194 18.5519 9.09487C18.6233 9.1478 18.6751 9.22286 18.6994 9.30833L18.7075 9.3375L18.7355 9.34567C18.7819 9.35973 18.8251 9.38271 18.8627 9.41333L18.9794 9.509L18.963 9.369C18.9573 9.33893 18.9573 9.30807 18.963 9.278C18.9728 9.21135 19.0087 9.15131 19.0627 9.11107C19.1167 9.07082 19.1845 9.05365 19.2512 9.06333H19.2594C19.3698 9.07418 19.4737 9.12042 19.5557 9.19517C19.5808 9.21749 19.6042 9.24167 19.6257 9.2675L19.6899 9.34917L19.7202 9.25C19.7622 9.10767 19.8439 9.01667 19.9267 9.01667C20.0434 9.01667 20.153 9.19983 20.16 9.43317V9.58017L20.2534 9.4635C20.3156 9.38747 20.4055 9.33924 20.5033 9.3294C20.601 9.31956 20.6987 9.3489 20.7749 9.411C20.8105 9.44036 20.8406 9.47594 20.8635 9.516L20.8869 9.56967L20.9324 9.54983C20.9801 9.53021 21.0313 9.5203 21.0829 9.52067C21.1894 9.52128 21.2914 9.56412 21.3664 9.63979C21.4414 9.71546 21.4833 9.81779 21.483 9.92433C21.4832 9.97056 21.4749 10.0164 21.4585 10.0597L21.441 10.118L21.5017 10.1343L21.532 10.1413L21.609 10.1612L21.5974 10.0888V9.98383C21.5974 9.6875 21.7222 9.481 21.8307 9.481C21.9217 9.481 22.0127 9.61867 22.0465 9.80767L22.0629 9.901L22.1364 9.83217C22.1897 9.77881 22.2621 9.74883 22.3376 9.74883C22.4131 9.74883 22.4855 9.77881 22.5389 9.83217L22.5505 9.84383H22.5704C22.6545 9.84607 22.735 9.87855 22.7972 9.93534C22.8593 9.99212 22.8989 10.0694 22.9087 10.153C22.9037 10.2187 22.8787 10.2812 22.8369 10.3321C22.7952 10.383 22.7388 10.4199 22.6754 10.4377L22.652 10.447L22.6427 10.4727L22.6217 10.5077L22.596 10.5578L22.6369 10.5905C22.6651 10.6071 22.6943 10.6219 22.7244 10.6348L22.8294 10.6768L22.8877 10.699L22.9052 10.6372C22.9402 10.5088 23.0277 10.4237 23.1175 10.4237C23.2435 10.4237 23.3509 10.5823 23.3509 10.7737V10.8903L23.4267 10.8612C23.4692 10.8451 23.5143 10.8372 23.5597 10.8378C23.6611 10.8412 23.757 10.8845 23.8266 10.9584C23.8961 11.0323 23.9335 11.1308 23.9307 11.2322C23.9282 11.2914 23.9122 11.3492 23.884 11.4013L23.849 11.4667L23.919 11.4737C24.0357 11.4993 24.143 11.672 24.1664 11.8913V11.9438H24.2177C24.2315 11.9403 24.2459 11.9403 24.2597 11.9438L24.3157 11.9672L24.3344 11.9088C24.3787 11.763 24.437 11.6977 24.4744 11.6977C24.5327 11.693 24.6027 11.8213 24.6424 12.0278L24.6354 12.3218V12.33C24.2492 12.5132 23.2774 12.7967 20.0539 12.8783C18.1453 13.0614 16.2198 12.9413 14.3489 12.5225L14.3512 12.5283ZM22.8854 10.454H22.8795C22.8565 10.4854 22.8373 10.5195 22.8224 10.5555L22.7687 10.5345C22.81 10.5132 22.8481 10.4861 22.8819 10.454H22.8854ZM18.4112 20.2248V20.2073C18.3684 20.1022 18.336 19.9932 18.3144 19.8818V19.8457C18.2961 19.758 18.2848 19.6691 18.2805 19.5797V19.5097L18.2397 15.5313C18.2255 15.0515 18.3986 14.585 18.7225 14.2307C19.0463 13.8764 19.4954 13.6621 19.9745 13.6332H20.0527C20.1492 13.633 20.2455 13.6404 20.3409 13.6553C20.3782 13.6612 20.4155 13.6635 20.4575 13.6705C20.5456 13.689 20.6322 13.7139 20.7165 13.7452C20.7434 13.7545 20.7702 13.7615 20.797 13.7732C20.8858 13.8105 20.9716 13.8546 21.0537 13.905C21.07 13.9155 21.0887 13.9237 21.105 13.9353C21.1874 13.9916 21.2654 14.054 21.3384 14.122L21.3745 14.1535C21.448 14.2257 21.5155 14.3038 21.5764 14.3868L21.602 14.4207C21.6616 14.5066 21.7135 14.5975 21.7572 14.6925C21.7647 14.7044 21.7714 14.7169 21.777 14.7298C21.8183 14.8269 21.8514 14.9272 21.8762 15.0297C21.8789 15.0449 21.8832 15.0597 21.889 15.074C21.91 15.1775 21.9228 15.2824 21.9275 15.3878C21.9247 15.4025 21.9247 15.4175 21.9275 15.4322C21.9334 15.4473 21.9275 15.4532 21.9275 15.4625C21.9287 15.4843 21.9287 15.5061 21.9275 15.5278L21.8879 19.5108C21.8912 19.9818 21.7144 20.4363 21.3936 20.7811C21.0729 21.126 20.6324 21.3352 20.1624 21.3658H20.1344C20.0702 21.3658 20.0305 21.3588 19.992 21.3577C19.8988 21.3542 19.806 21.3437 19.7144 21.3262C19.6919 21.3227 19.67 21.3164 19.649 21.3075C19.5535 21.2847 19.4602 21.2535 19.3702 21.2142L19.3294 21.1955C19.2342 21.1524 19.1429 21.1013 19.0564 21.0427L19.0354 21.0263C18.9462 20.9624 18.863 20.8906 18.7869 20.8117L18.7845 20.8C18.7062 20.7189 18.6352 20.631 18.5722 20.5375V20.5282C18.5083 20.4328 18.4543 20.3312 18.4112 20.2248ZM18.466 24.1658L18.4357 24.1833L18.4042 24.1658V24.1297L18.4357 24.1122L18.4789 24.1297L18.466 24.1658ZM18.5512 23.7528V23.7365C18.5769 23.7473 18.6034 23.7559 18.6305 23.7622H18.6177L18.5512 23.7528ZM18.76 24.5695V24.545C18.7894 24.5611 18.8208 24.5732 18.8534 24.5812V24.5882L18.76 24.5695ZM18.9584 24.1122L18.9 24.146L18.8417 24.111V24.041L18.8942 24.006L18.9525 24.0422L18.9584 24.1122ZM19.1112 23.8263L19.1345 23.8065L19.1392 23.8217L19.1112 23.8263ZM19.2127 24.3012L19.166 24.2883L19.1544 24.2405L19.1894 24.2067L19.2372 24.2207L19.2489 24.2673L19.2127 24.3012ZM19.32 24.664L19.3259 24.6488L19.3305 24.664H19.32ZM19.3317 24.0235L19.2967 24.0107L19.2909 23.9757L19.32 23.9523L19.355 23.964L19.3597 24.0002L19.3317 24.0235ZM19.6607 24.44H19.6187L19.5954 24.405L19.6129 24.3665H19.6549L19.6782 24.4015L19.6607 24.44ZM19.866 24.1717L19.8252 24.195L19.7844 24.1717V24.1238L19.8252 24.1005L19.8649 24.1238L19.866 24.1717ZM19.831 23.8917C19.8423 23.8806 19.8513 23.8673 19.8573 23.8527C19.8633 23.838 19.8663 23.8223 19.866 23.8065C19.8658 23.7958 19.8638 23.7851 19.8602 23.775H19.8719C19.8771 23.7935 19.8862 23.8106 19.8987 23.8252C19.8735 23.8453 19.8501 23.8675 19.8287 23.8917H19.831ZM20.0352 24.7422L20.041 24.7293L20.0294 24.7422C20.056 24.714 20.0714 24.6771 20.0725 24.6383C20.0749 24.6256 20.0749 24.6126 20.0725 24.5998L20.0784 24.6115H20.0865C20.0923 24.6347 20.1026 24.6565 20.1169 24.6757C20.0866 24.6929 20.0591 24.7145 20.0352 24.7398V24.7422ZM20.2172 24.1483L20.1892 24.1402L20.1834 24.1133L20.2067 24.0947L20.2312 24.1028V24.1297L20.2172 24.1483ZM20.4272 23.9967V24.0142L20.4109 24.0235L20.3945 24.0142V23.9967L20.4097 23.9873L20.4272 23.9967ZM20.4109 23.845C20.4245 23.8341 20.4363 23.8211 20.4459 23.8065C20.4485 23.8191 20.4536 23.831 20.461 23.8415L20.454 23.8345L20.4109 23.845ZM20.461 24.1122L20.4272 24.1227L20.4039 24.0993L20.4109 24.0643L20.4424 24.0538L20.468 24.0783L20.461 24.1122ZM20.6664 24.6687L20.6465 24.678L20.6174 24.6932V24.6815C20.632 24.6662 20.6438 24.6484 20.6524 24.629C20.6569 24.6435 20.6628 24.6575 20.6699 24.671L20.6664 24.6687ZM20.783 24.349L20.7504 24.3642L20.72 24.3443V24.3093L20.7527 24.3058L20.7819 24.3257L20.783 24.349ZM21.0164 23.9325C20.9918 23.902 20.9612 23.877 20.9265 23.859H20.9615C20.9887 23.8657 21.0164 23.87 21.0444 23.8718H21.0805C21.0755 23.8902 21.0716 23.9089 21.0689 23.9278H21.0175L21.0164 23.9325ZM21.077 24.2965H21.042L21.0304 24.2662L21.049 24.2405H21.0817L21.105 24.2732L21.077 24.2965ZM21.28 24.7923H21.2345C21.2117 24.7574 21.1819 24.7277 21.147 24.7048C21.1624 24.7084 21.178 24.7107 21.1937 24.7118C21.2184 24.7186 21.2439 24.7226 21.2695 24.7235H21.3022C21.2959 24.7464 21.292 24.7698 21.2905 24.7935L21.28 24.7923ZM21.238 24.2323L21.2287 24.2557H21.203L21.1879 24.2347L21.1995 24.2113H21.2229L21.238 24.2323ZM21.2264 24.097L21.2497 24.0865L21.2695 24.0947V24.1122L21.2485 24.1238L21.2252 24.1145L21.2264 24.097ZM21.3815 24.5532H21.3722V24.538H21.3804V24.545L21.3815 24.5532ZM21.6149 23.887C21.6137 23.8971 21.6137 23.9073 21.6149 23.9173H21.5635V23.8952L21.6172 23.8765L21.6149 23.887ZM21.6685 24.237H21.637L21.6219 24.2102L21.637 24.1845H21.6674L21.6825 24.2113L21.6685 24.237ZM21.7455 24.1203V24.1028L21.7595 24.0947L21.7712 24.1028V24.1203H21.7595H21.7455ZM21.7805 24.7888H21.7724V24.762C21.7908 24.7561 21.8088 24.7487 21.826 24.7398H21.833L21.8389 24.7818L21.7805 24.7888ZM22.022 23.9197L22.057 23.8718H22.113L22.1364 23.9243L22.1037 23.971H22.0454L22.022 23.9197ZM22.358 24.37L22.3394 24.412C22.2946 24.3867 22.2448 24.3716 22.1935 24.3677C22.1632 24.3675 22.133 24.3714 22.1037 24.3793V24.356C22.1876 24.3709 22.2738 24.3645 22.3545 24.3373L22.3615 24.3513L22.358 24.37ZM22.6229 24.5625L22.6042 24.5742L22.5855 24.5625V24.5415L22.6042 24.5298L22.6229 24.5415V24.5625ZM22.6695 24.2673H22.6462V24.2557L22.6579 24.2487L22.6695 24.2557V24.2673ZM22.6695 24.034H22.6404L22.6252 24.0072L22.6415 23.9815H22.6719L22.6859 24.0083L22.6695 24.034ZM22.7687 24.1378L22.7395 24.1262L22.7325 24.0958L22.7559 24.0748L22.7874 24.0853V24.1168L22.7687 24.1378ZM23.0464 24.4878H23.037C23.0325 24.475 23.0298 24.4617 23.0289 24.4482C23.0464 24.4529 23.0644 24.4552 23.0825 24.4552C23.0891 24.4691 23.0969 24.4823 23.1059 24.4948C23.0867 24.4894 23.0672 24.4852 23.0475 24.482L23.0464 24.4878ZM23.5014 24.4948H23.4757L23.464 24.4715L23.478 24.4482H23.5049L23.5165 24.4715L23.5014 24.4948ZM23.7965 24.4948L23.7382 24.503L23.7032 24.4563L23.7265 24.4015L23.7849 24.3898L23.8199 24.4365L23.7965 24.4948ZM26.3469 23.6478C26.131 24.0632 25.4975 24.3828 24.4592 24.5987V24.5858L24.4149 24.5963L24.3799 24.566C24.3702 24.5571 24.3597 24.5493 24.3484 24.5427L24.2959 24.5135H24.3285L24.3822 24.5018L24.3647 24.4948L24.3367 24.4738C24.3731 24.4191 24.3933 24.3552 24.395 24.2895C24.3953 24.2467 24.3872 24.2042 24.371 24.1645C24.3549 24.1248 24.3311 24.0887 24.3009 24.0582C24.2708 24.0278 24.235 24.0036 24.1954 23.987C24.1559 23.9704 24.1135 23.9618 24.0707 23.9617C23.992 23.9612 23.916 23.9899 23.8572 24.0422C23.8191 23.9691 23.7543 23.9136 23.6764 23.887L23.66 23.88C23.5938 23.8651 23.5246 23.8708 23.4617 23.8963H23.422C23.4036 23.9068 23.3868 23.9198 23.3719 23.9348C23.358 23.9436 23.3447 23.9534 23.3322 23.964C23.2943 23.9718 23.258 23.986 23.2249 24.006C23.1984 23.9853 23.1677 23.9706 23.135 23.9628C23.1208 23.8969 23.0865 23.8369 23.037 23.791C22.9875 23.7452 22.925 23.7157 22.8582 23.7065C22.7913 23.6973 22.7232 23.7089 22.6632 23.7398C22.6032 23.7706 22.554 23.8191 22.5225 23.8788C22.4901 23.8903 22.46 23.9077 22.4339 23.9302C22.396 23.9035 22.3538 23.8838 22.309 23.8718C22.2997 23.8177 22.2787 23.7663 22.2475 23.7212C22.2163 23.676 22.1756 23.6383 22.1282 23.6105C22.0815 23.5932 22.0321 23.5845 21.9824 23.5848H21.9602C21.8903 23.6012 21.8288 23.6428 21.7875 23.7015C21.7382 23.6437 21.6692 23.6063 21.5939 23.5965H21.5705C21.5087 23.5946 21.4478 23.6112 21.3955 23.6443C21.3839 23.6513 21.3699 23.6443 21.3605 23.656C21.341 23.6736 21.3237 23.6936 21.3092 23.7155C21.2985 23.727 21.2883 23.7391 21.2789 23.7517C21.2478 23.7349 21.2144 23.7231 21.1797 23.7167C21.1618 23.6798 21.1344 23.6482 21.1004 23.6253C21.0664 23.6023 21.0269 23.5887 20.986 23.5859C20.945 23.583 20.9041 23.591 20.8672 23.6091C20.8303 23.6271 20.7989 23.6546 20.776 23.6887C20.7561 23.6347 20.7194 23.5886 20.6713 23.5571C20.6232 23.5256 20.5663 23.5104 20.5089 23.5137C20.4442 23.509 20.3803 23.5295 20.3303 23.5707C20.2803 23.612 20.2482 23.671 20.2405 23.7353L20.2335 23.747C20.2324 23.7602 20.2324 23.7735 20.2335 23.7867V23.8065H20.2242C20.2075 23.7493 20.1696 23.7006 20.1182 23.6704C20.0668 23.6403 20.0058 23.6309 19.9477 23.6443H19.9244C19.8924 23.6541 19.8632 23.6713 19.8392 23.6945C19.8099 23.7217 19.7885 23.7564 19.7774 23.7948C19.7785 23.8018 19.7715 23.8065 19.7704 23.8123L19.7634 23.8263C19.7644 23.8723 19.779 23.917 19.8054 23.9547L19.7937 23.985C19.7594 23.925 19.7099 23.8751 19.6502 23.8403C19.6195 23.7844 19.5745 23.7376 19.5198 23.7048C19.465 23.6719 19.4025 23.6543 19.3387 23.6537C19.2588 23.6539 19.1814 23.6815 19.1194 23.7318C19.0739 23.6988 19.0192 23.6809 18.963 23.6805C18.8953 23.6804 18.8302 23.7063 18.781 23.7528C18.7575 23.7225 18.7275 23.6979 18.6931 23.6807C18.6588 23.6636 18.6211 23.6543 18.5827 23.6537C18.5117 23.6564 18.4445 23.6864 18.3952 23.7375C18.3458 23.7886 18.3181 23.8568 18.3179 23.9278C18.2806 23.9154 18.2416 23.9091 18.2024 23.9092C18.1216 23.9065 18.0429 23.9351 17.9828 23.989C17.9226 24.0429 17.8855 24.1179 17.8792 24.1985C17.8754 24.202 17.8726 24.2064 17.871 24.2113C17.8711 24.2826 17.8977 24.3512 17.9457 24.4038C18.0204 24.4248 18.0985 24.4435 18.179 24.4633L18.2607 24.5578L18.2794 24.5812L17.976 24.4995C16.7954 24.1798 16.1094 23.7365 16.1094 23.2827V23.2558C16.1052 23.1429 16.1218 23.0302 16.1584 22.9233C16.2809 22.5967 17.0917 22.1183 18.4217 21.7567L22.5237 21.6482C23.5053 21.7593 24.4689 21.9945 25.3914 22.3482C26.0505 22.6188 26.425 22.9315 26.4414 23.2232C26.4516 23.3632 26.4217 23.5032 26.355 23.6268L26.3469 23.6478ZM21.2719 18.6475C21.2983 18.6346 21.3221 18.6168 21.3419 18.595C21.3636 18.5765 21.3814 18.5539 21.3944 18.5285C21.3944 18.5203 21.4072 18.5168 21.4095 18.511C21.4224 18.466 21.4224 18.4183 21.4095 18.3733C21.3986 18.3408 21.3802 18.3112 21.3559 18.2869C21.3316 18.2626 21.3021 18.2443 21.2695 18.2333C21.2175 18.2202 21.1625 18.226 21.1144 18.2497C21.0888 18.2633 21.0661 18.282 21.0479 18.3045C21.0253 18.3229 21.007 18.346 20.9942 18.3722C20.9942 18.3792 20.9825 18.3827 20.9779 18.3908C20.9638 18.4349 20.9638 18.4821 20.9779 18.5262C20.9883 18.5578 21.006 18.5866 21.0295 18.6103C21.053 18.634 21.0816 18.6519 21.1132 18.6627C21.1651 18.6756 21.2199 18.6702 21.2684 18.6475H21.2719ZM19.4087 15.2152C19.4125 15.2264 19.4203 15.2359 19.4306 15.2417C19.441 15.2475 19.4531 15.2493 19.4647 15.2467C19.5207 15.2338 19.516 15.1615 19.4822 15.13C19.4719 15.1231 19.4594 15.1205 19.4472 15.1227C19.435 15.1248 19.4241 15.1316 19.4169 15.1417C19.4087 15.1519 19.4035 15.1641 19.4019 15.1771C19.4002 15.1901 19.4022 15.2032 19.4075 15.2152H19.4087ZM20.1402 18.6977C20.1965 18.6983 20.2511 18.6786 20.294 18.6421C20.3368 18.6057 20.3651 18.555 20.3735 18.4993C20.3747 18.4993 20.3864 18.4877 20.3864 18.476C20.3864 18.4643 20.3794 18.4643 20.3782 18.4527C20.3729 18.398 20.3484 18.347 20.3091 18.3085C20.2699 18.2701 20.2183 18.2468 20.1635 18.2427C20.1303 18.2426 20.0975 18.2499 20.0675 18.264C20.0374 18.2782 20.0109 18.2987 19.9897 18.3243C19.9515 18.363 19.928 18.4137 19.9232 18.4678V18.4748C19.9222 18.5337 19.9434 18.5908 19.9827 18.6347C20.0249 18.6778 20.0822 18.7029 20.1425 18.7047L20.1402 18.6977ZM18.6585 20.226C18.6898 20.2865 18.7249 20.345 18.7635 20.401C18.857 20.5815 18.9917 20.7373 19.1567 20.856L19.1719 20.8712C19.2397 20.9208 19.3115 20.9649 19.3865 21.003C19.411 21.017 19.4344 21.0333 19.46 21.0462C19.5201 21.0727 19.5816 21.0957 19.6444 21.115C19.691 21.1302 19.7354 21.15 19.7844 21.1617L19.8089 21.1722C19.9051 21.1944 20.0031 21.2085 20.1017 21.2142C21.1354 21.2142 21.8517 19.7208 21.6475 19.0092L21.1225 19.0383L18.6655 19.12L18.5489 19.1282C18.5316 19.2116 18.5207 19.2962 18.5162 19.3813C18.519 19.3952 18.519 19.4095 18.5162 19.4233C18.5096 19.5641 18.5202 19.7051 18.5477 19.8433C18.5627 19.9007 18.581 19.9572 18.6025 20.0125C18.6195 20.0863 18.6417 20.1589 18.669 20.2295L18.6585 20.226ZM18.7752 19.281V19.2133L21.0549 19.1608C20.9685 19.904 20.5159 20.4197 19.943 20.4197C19.8315 20.4237 19.7201 20.4099 19.6129 20.3788C19.5488 20.3653 19.4863 20.3454 19.4262 20.3193C19.3018 20.2709 19.1889 20.197 19.0949 20.1023C19.0324 20.0389 18.9776 19.9684 18.9315 19.8923C18.9066 19.8553 18.8847 19.8163 18.8662 19.7757C18.8265 19.6874 18.7998 19.5939 18.7869 19.498C18.7869 19.4735 18.7694 19.4513 18.767 19.4268C18.7652 19.3778 18.7671 19.3286 18.7729 19.2798L18.7752 19.281ZM19.3585 15.382L19.397 15.2303C19.3924 15.208 19.3924 15.185 19.397 15.1627C19.4112 15.1397 19.4241 15.116 19.4355 15.0915L19.4449 15.053C19.448 15.0375 19.4535 15.0225 19.4612 15.0087C19.462 15.0023 19.4642 14.9962 19.4676 14.9907C19.4711 14.9853 19.4756 14.9807 19.481 14.9772C19.5335 14.9562 19.5464 15.0192 19.5604 15.0565L19.677 15.3598H19.7272L19.6759 15.2198C19.6594 15.172 19.6399 15.1252 19.6175 15.0798C19.6016 15.0361 19.5833 14.9932 19.5627 14.9515C19.5517 14.9379 19.5372 14.9274 19.5208 14.9212C19.5044 14.9151 19.4866 14.9135 19.4694 14.9165C19.4456 14.9257 19.4249 14.9414 19.4099 14.962C19.397 14.9919 19.388 15.0232 19.383 15.0553L19.3329 15.256V15.2793L19.3037 15.382H19.3585ZM18.8919 18.9847H18.9035L21.245 18.9112C21.3637 18.9073 21.4762 18.8576 21.5591 18.7725C21.6419 18.6875 21.6887 18.5737 21.6895 18.455L21.7129 16.8123C21.7135 16.7496 21.7016 16.6874 21.678 16.6294C21.6543 16.5713 21.6194 16.5185 21.5752 16.474C21.5312 16.4302 21.4787 16.3959 21.4209 16.3732C21.3631 16.3506 21.3012 16.34 21.2392 16.3422L18.8825 16.4145C18.7616 16.4179 18.6469 16.4687 18.5633 16.5561C18.4797 16.6434 18.4338 16.7602 18.4357 16.8812V18.5227C18.4358 18.5846 18.4482 18.6459 18.4723 18.703C18.4963 18.7601 18.5315 18.8118 18.5757 18.8552C18.6193 18.8962 18.6706 18.9281 18.7268 18.9489C18.7829 18.9697 18.8426 18.9791 18.9024 18.9765L18.8919 18.9847ZM18.5419 18.518V16.8753C18.5418 16.7845 18.5771 16.6972 18.6402 16.6319C18.7034 16.5666 18.7894 16.5284 18.8802 16.5253L21.245 16.453H21.2567C21.3018 16.4526 21.3465 16.4613 21.3882 16.4786C21.4299 16.4958 21.4677 16.5212 21.4994 16.5533C21.5333 16.5866 21.5601 16.6264 21.5781 16.6703C21.5962 16.7142 21.6051 16.7614 21.6044 16.8088L21.581 18.4585C21.5811 18.5493 21.5458 18.6366 21.4827 18.702C21.4195 18.7673 21.3335 18.8055 21.2427 18.8085L18.9 18.882C18.8533 18.8837 18.8067 18.8758 18.7631 18.8588C18.7196 18.8417 18.68 18.8159 18.6469 18.7828C18.6135 18.7501 18.587 18.7111 18.569 18.668C18.551 18.625 18.5417 18.5787 18.5419 18.532V18.518ZM18.8919 18.6673C18.9183 18.6935 18.9508 18.7127 18.9864 18.7233C19.0221 18.7339 19.0598 18.7355 19.0962 18.7281C19.1326 18.7207 19.1667 18.7044 19.1953 18.6807C19.2239 18.6569 19.2463 18.6265 19.2604 18.5921C19.2745 18.5577 19.2799 18.5204 19.2761 18.4834C19.2723 18.4464 19.2595 18.4109 19.2388 18.3801C19.218 18.3492 19.19 18.3239 19.1572 18.3065C19.1243 18.289 19.0877 18.2799 19.0505 18.28C18.9946 18.2891 18.9428 18.3153 18.9023 18.355C18.8618 18.3947 18.8345 18.4459 18.8242 18.5017C18.825 18.5518 18.844 18.6 18.8779 18.637C18.8919 18.6463 18.8825 18.6592 18.8919 18.6685V18.6673ZM20.72 15.2957C20.7467 15.2855 20.7718 15.2718 20.7947 15.2548V15.2968H20.8449C20.8355 15.0962 20.8309 14.9398 20.6745 14.941C20.601 14.9398 20.566 14.9842 20.5462 15.0635C20.517 15.1918 20.6139 15.3307 20.7212 15.2968L20.72 15.2957ZM20.6104 15.0378C20.6159 15.0262 20.6242 15.0162 20.6346 15.0087C20.645 15.0012 20.6571 14.9963 20.6699 14.9947C20.6927 14.9946 20.7151 15.0008 20.7347 15.0125C20.7543 15.0242 20.7704 15.041 20.7812 15.0612C20.7919 15.0813 20.7971 15.104 20.796 15.1268C20.7948 15.1496 20.7876 15.1717 20.7749 15.1907C20.7678 15.2027 20.7581 15.2132 20.7467 15.2212C20.7352 15.2293 20.7221 15.2348 20.7084 15.2373C20.6881 15.2425 20.6667 15.2396 20.6484 15.2294C20.6302 15.2192 20.6166 15.2024 20.6104 15.1825C20.6009 15.1618 20.596 15.1393 20.596 15.1166C20.596 15.0938 20.6009 15.0714 20.6104 15.0507V15.0378ZM18.6702 12.8212L18.6667 12.7558L18.6095 12.7278L18.5559 12.7628L18.5582 12.8282L18.6165 12.8573L18.6702 12.8212ZM16.6495 11.8132L16.6647 11.8213L16.681 11.8132V11.7898L16.6705 11.7817L16.6589 11.791L16.6495 11.8132ZM20.3969 15.3213H20.447C20.4412 15.2534 20.4412 15.1851 20.447 15.1172C20.4552 15.0623 20.475 15.0215 20.531 15.0192C20.531 15.0192 20.531 14.969 20.5194 14.9643C20.5021 14.9609 20.4841 14.9642 20.4692 14.9737C20.4449 14.9853 20.4244 15.0034 20.41 15.0261C20.3955 15.0488 20.3877 15.0751 20.3875 15.102C20.3844 15.1799 20.3871 15.2579 20.3957 15.3353L20.3969 15.3213ZM24.6855 24.349C24.6937 24.3303 24.6505 24.048 24.6505 24.0247C24.6447 23.9847 24.6287 23.9469 24.6039 23.915C24.6043 23.9112 24.6036 23.9073 24.602 23.9038C24.6003 23.9003 24.5978 23.8973 24.5945 23.8952C24.4671 23.7301 24.2797 23.6219 24.073 23.5942C24.0088 23.5943 23.945 23.6045 23.884 23.6245C23.792 23.5608 23.6821 23.5277 23.5702 23.53C23.4711 23.5289 23.3735 23.5547 23.2879 23.6047L23.233 23.6163H23.2214C23.1737 23.5424 23.1007 23.4885 23.016 23.4647C22.9245 23.4318 22.8259 23.4234 22.7301 23.4404C22.6344 23.4574 22.5447 23.4991 22.47 23.5615L22.4409 23.5732C22.4237 23.567 22.4062 23.562 22.3884 23.558C22.3512 23.4924 22.2964 23.4384 22.2303 23.4021C22.1641 23.3658 22.0892 23.3487 22.0139 23.3527C21.9363 23.3518 21.8597 23.3702 21.791 23.4063C21.7157 23.3702 21.6331 23.3518 21.5495 23.3527C21.4395 23.3496 21.3314 23.3824 21.2415 23.446H21.2345C21.1592 23.3828 21.0633 23.3496 20.965 23.3527C20.9058 23.3531 20.8471 23.3649 20.7924 23.3877C20.7071 23.3313 20.6064 23.3028 20.5042 23.306C20.3947 23.3018 20.2871 23.3356 20.1997 23.4017C20.1384 23.3702 20.0703 23.3542 20.0014 23.355C19.9409 23.3501 19.8802 23.3619 19.8259 23.389C19.7716 23.4162 19.7258 23.4577 19.6934 23.509C19.5935 23.4312 19.4699 23.39 19.3434 23.3923C19.2675 23.3914 19.1922 23.4053 19.1217 23.4332C19.0148 23.4013 18.9005 23.4038 18.795 23.4402C18.7302 23.4093 18.6592 23.3933 18.5874 23.3935C18.5211 23.3887 18.4549 23.4019 18.3955 23.4317C18.3362 23.4615 18.286 23.5067 18.2502 23.5627C18.2385 23.5627 18.1709 23.6222 18.158 23.6222C18.0829 23.6132 18.0069 23.628 17.9406 23.6644C17.8743 23.7008 17.821 23.757 17.7882 23.8252C17.7101 23.9364 17.6692 24.0696 17.6715 24.2055L17.8512 24.2615C17.85 24.2448 17.85 24.228 17.8512 24.2113C17.8549 24.1032 17.901 24.0009 17.9797 23.9267C18.0583 23.8524 18.1631 23.8121 18.2712 23.8147H18.3097C18.331 23.7414 18.3752 23.6769 18.4359 23.6307C18.4966 23.5845 18.5706 23.559 18.6469 23.558C18.7221 23.5579 18.7952 23.5829 18.8545 23.6292C18.9042 23.6022 18.9595 23.5872 19.016 23.5853C19.0726 23.5835 19.1287 23.5949 19.18 23.6187C19.2728 23.5647 19.3819 23.5462 19.4873 23.5666C19.5926 23.587 19.687 23.6448 19.7529 23.7295L19.761 23.719C19.7829 23.6703 19.8171 23.6281 19.8602 23.5965C19.8928 23.5651 19.933 23.5426 19.9769 23.5312C20.0088 23.5209 20.0425 23.5169 20.076 23.5195C20.1017 23.5195 20.1239 23.5043 20.1495 23.5113C20.189 23.5229 20.2258 23.5419 20.258 23.5673H20.2662C20.2954 23.537 20.3385 23.5323 20.3735 23.5137C20.4272 23.4746 20.4897 23.4498 20.5555 23.4413C20.5935 23.448 20.6304 23.4598 20.6652 23.4763C20.7213 23.4811 20.7756 23.4987 20.8239 23.5277L20.8507 23.5533C20.9068 23.5192 20.9717 23.5021 21.0374 23.5043C21.0901 23.5041 21.1421 23.5167 21.1889 23.5411C21.2356 23.5655 21.2757 23.6009 21.3057 23.6443H21.3115C21.3494 23.5996 21.3965 23.5636 21.4498 23.539C21.503 23.5144 21.5609 23.5018 21.6195 23.502C21.7067 23.5013 21.7917 23.5296 21.861 23.5825C21.9232 23.5304 22.0016 23.5015 22.0827 23.5008C22.1703 23.5052 22.2541 23.5378 22.3216 23.5937C22.3891 23.6497 22.4366 23.7259 22.4572 23.8112L22.5097 23.8322L22.5389 23.8158C22.5885 23.742 22.6604 23.686 22.7442 23.656L22.7652 23.6467C22.8072 23.634 22.8508 23.6277 22.8947 23.628H22.9297C22.9693 23.6298 23.0086 23.6369 23.0464 23.649C23.0623 23.6546 23.0779 23.6613 23.093 23.6688L23.1257 23.6805C23.1374 23.6793 23.1374 23.6992 23.149 23.7062C23.2138 23.7513 23.2638 23.8146 23.2925 23.8882L23.3135 23.8975C23.3324 23.8899 23.3519 23.884 23.3719 23.88C23.4104 23.8418 23.4562 23.8116 23.5065 23.7913C23.5568 23.7709 23.6107 23.7608 23.665 23.7614C23.7193 23.7621 23.7729 23.7735 23.8227 23.7951C23.8725 23.8166 23.9176 23.8479 23.9552 23.887L23.9739 23.9068C24.0322 23.8763 24.097 23.8603 24.1629 23.8602L24.2002 23.8683C24.2265 23.8713 24.2526 23.876 24.2784 23.8823C24.3143 23.8938 24.3487 23.9095 24.381 23.929C24.3972 23.939 24.4127 23.95 24.4277 23.9617C24.4512 23.9833 24.4731 24.0067 24.493 24.0317C24.5073 24.051 24.5201 24.0712 24.5315 24.0923C24.5431 24.1163 24.5525 24.1413 24.5595 24.167C24.5683 24.1959 24.5741 24.2256 24.577 24.2557L24.584 24.2872C24.5827 24.313 24.5795 24.3387 24.5747 24.3642V24.3793L24.7135 24.3467L24.6855 24.349ZM19.8695 15.3482C19.8843 15.3481 19.8989 15.3447 19.9123 15.3382C19.9256 15.3318 19.9373 15.3224 19.9465 15.3108C19.9524 15.3038 19.964 15.3108 19.9699 15.2992L19.9769 15.4357H20.0294C20.0177 15.2023 20.0352 14.9772 19.8485 14.9842C19.833 14.985 19.8177 14.9889 19.8037 14.9957C19.7897 15.0025 19.7771 15.0121 19.7669 15.0238C19.7357 15.0645 19.7189 15.1143 19.7189 15.1656C19.7189 15.2168 19.7357 15.2666 19.7669 15.3073C19.7964 15.3304 19.8321 15.3443 19.8695 15.347V15.3482ZM19.7809 15.0938C19.7854 15.081 19.7935 15.0698 19.8043 15.0615C19.815 15.0532 19.828 15.0482 19.8415 15.0472C19.9465 15.039 19.9815 15.1638 19.9419 15.2338C19.935 15.2457 19.9258 15.2559 19.9147 15.264C19.9037 15.272 19.8911 15.2776 19.8777 15.2805C19.8578 15.2857 19.8366 15.2832 19.8184 15.2735C19.8002 15.2638 19.7864 15.2475 19.7797 15.228C19.7693 15.2072 19.7639 15.1842 19.7639 15.1609C19.7639 15.1376 19.7693 15.1147 19.7797 15.0938H19.7809ZM20.2242 15.3307H20.2324C20.2578 15.3216 20.2815 15.3082 20.3024 15.291V15.3307H20.3525C20.3409 15.13 20.3374 14.969 20.1775 14.9807C20.1486 14.9832 20.121 14.9941 20.0982 15.0122C20.0719 15.0372 20.0539 15.0698 20.0469 15.1055C20.0212 15.2222 20.1169 15.3598 20.2254 15.3342L20.2242 15.3307ZM20.1169 15.0763C20.1216 15.0634 20.13 15.052 20.1409 15.0435C20.1518 15.0351 20.1649 15.0298 20.1787 15.0285C20.2767 15.0192 20.3117 15.1452 20.2697 15.214C20.2633 15.2258 20.2545 15.236 20.2439 15.2441C20.2332 15.2521 20.2209 15.2578 20.2079 15.2607C20.1881 15.266 20.167 15.2636 20.1488 15.2541C20.1307 15.2446 20.1168 15.2286 20.1099 15.2093C20.0995 15.1887 20.0941 15.1659 20.0941 15.1428C20.0941 15.1197 20.0995 15.097 20.1099 15.0763H20.1169ZM22.372 21.7648C22.5517 21.7835 18.431 21.9282 18.431 21.9282C17.6892 22.0616 16.99 22.3704 16.3917 22.8288C17.0705 22.4801 17.7946 22.2277 18.543 22.0787L22.372 21.9877C25.032 22.193 26.1287 22.9677 26.2874 23.1998V23.1625C25.774 22.284 22.8259 21.8092 22.3732 21.766L22.372 21.7648ZM22.8597 11.9707V11.924L22.8189 11.9007L22.7769 11.9298V11.9765L22.8189 11.9998L22.8597 11.9707ZM21.973 10.2732V10.2265L21.938 10.2067L21.9007 10.2277V10.2697L21.9357 10.2907L21.973 10.2732ZM22.3954 12.3242L22.442 12.2238L22.3802 12.1328L22.2705 12.1422L22.2239 12.2413L22.2857 12.3323L22.3954 12.3242ZM21.9345 11.7665L21.952 11.6603L21.868 11.595L21.7689 11.6358L21.7549 11.7408L21.8389 11.8062L21.9345 11.7665ZM21.7455 12.5598L21.8202 12.4898L21.7969 12.3895L21.6965 12.3603L21.6219 12.4303L21.6452 12.5318L21.7455 12.5598ZM22.2904 10.5683L22.2927 10.5625L22.2904 10.5578H22.2834L22.281 10.5625L22.2834 10.5683H22.2904ZM22.0069 11.0303V10.888L21.8832 10.818L21.7595 10.888V11.0303L21.8832 11.1003L22.0069 11.0303ZM16.6892 10.167L16.6542 10.0725L16.555 10.0562L16.4909 10.1332L16.5259 10.2288L16.625 10.2452L16.6892 10.167ZM13.2825 14.787L13.1297 5.9215C13.2789 6.09534 13.4768 6.2205 13.6979 6.28083C14.9368 6.55066 16.2049 6.66316 17.472 6.61567C17.9585 6.625 18.4789 6.63317 19.0692 6.639H19.3434C21.0306 6.63592 22.7154 6.51076 24.3845 6.2645C24.4359 6.24933 24.4709 6.20383 24.5187 6.17933C24.6183 6.13919 24.7097 6.08105 24.7882 6.00783V5.89117L24.9049 5.7745C24.857 5.4635 24.7296 5.17014 24.535 4.92283C23.8607 5.3475 22.071 5.55517 19.2267 5.58667C16.1234 5.62167 13.4867 5.38833 13.3117 4.75833C13.3117 4.75833 12.936 5.34167 13.0095 5.66017L13.1274 5.84567L13.0107 5.66133V5.68467L13.1659 14.7228L13.2825 14.787ZM24.3239 4.67667C24.3239 4.85613 23.7557 5.02824 22.7445 5.15514C21.7332 5.28204 20.3617 5.35333 18.9315 5.35333C17.5014 5.35333 16.1298 5.28204 15.1186 5.15514C14.1073 5.02824 13.5392 4.85613 13.5392 4.67667C13.5392 4.4972 14.1073 4.32509 15.1186 4.19819C16.1298 4.07129 17.5014 4 18.9315 4C20.3617 4 21.7332 4.07129 22.7445 4.19819C23.7557 4.32509 24.3239 4.4972 24.3239 4.67667ZM21.0864 11.0117V10.9708L21.0502 10.9498L21.014 10.9708V11.0128L21.049 11.0338L21.0864 11.0117ZM23.1969 12.1783L23.1735 12.2285L23.205 12.274L23.2599 12.2705L23.2832 12.2203L23.2517 12.1737L23.1969 12.1783ZM23.4302 11.7992L23.5282 11.6125L23.415 11.434L23.1922 11.4433L23.0942 11.63L23.2074 11.8085L23.4302 11.7992ZM23.7207 12.0885L23.7265 12.0768L23.7207 12.0675H23.709L23.7032 12.078L23.709 12.0897L23.7207 12.0885ZM22.736 11.1703L22.764 11.112L22.729 11.0595L22.6649 11.063L22.6357 11.1213L22.6707 11.1738L22.736 11.1703ZM23.0592 11.4818L23.0685 11.4667L23.0592 11.4515H23.0417L23.0324 11.4667L23.0417 11.4818H23.0592ZM15.4397 11.5192L15.498 11.406L15.428 11.2987L15.2997 11.3068L15.2425 11.4212L15.3125 11.5262L15.4397 11.5192ZM15.456 10.9872V10.8215L15.3125 10.7398L15.169 10.8215V10.9872L15.3207 11.0688L15.456 10.9872ZM15.526 12.211L15.5179 12.1912L15.4969 12.1783C15.4664 12.1671 15.4374 12.1522 15.4105 12.134L15.3954 12.1247H15.3254V12.1783C15.3217 12.1976 15.3217 12.2174 15.3254 12.2367L15.3137 12.3067H15.3837C15.4142 12.302 15.4453 12.302 15.4759 12.3067L15.5692 12.323L15.5342 12.2273L15.526 12.211ZM20.839 12.2507L20.8542 12.225L20.839 12.1993H20.8099L20.7947 12.225L20.8099 12.2507H20.839ZM15.673 12.4572L15.631 12.5295L15.673 12.6018H15.7547L15.7967 12.5295L15.7559 12.4572H15.673ZM16.338 10.7153L16.3182 10.7958L16.3765 10.8542L16.4582 10.8343L16.4792 10.7527L16.4209 10.6943L16.338 10.7153ZM15.0034 12.274L14.9742 12.3242L15.0034 12.3755H15.0629L15.092 12.3242L15.0617 12.2728L15.0034 12.274ZM15.8574 11.9823L15.834 12.0383L15.869 12.085L15.9285 12.078L15.9519 12.0232L15.9169 11.9765L15.8574 11.9823ZM16.2797 11.4317L16.2715 11.49L16.3182 11.5262L16.3742 11.5028L16.3812 11.4445L16.3334 11.4095L16.2797 11.4317ZM19.8497 11.0187V11.042L19.8754 11.0537L19.901 11.0373V11.014L19.8754 10.9988L19.8497 11.0187ZM20.44 10.447L20.51 10.2837L20.405 10.1343L20.2184 10.1542L20.1437 10.3198L20.251 10.4622L20.44 10.447ZM19.551 12.4315L19.5569 12.4023L19.5335 12.3825L19.5055 12.3942L19.4997 12.421L19.523 12.4408L19.551 12.4315ZM20.3805 11.7175L20.3339 11.8412L20.4202 11.9415L20.5497 11.9182L20.594 11.7957L20.51 11.6953L20.3805 11.7175ZM19.894 10.2988L19.964 10.1962L19.9115 10.0842L19.7867 10.0737L19.7167 10.1763L19.7692 10.2883L19.894 10.2988ZM20.6769 10.0142L20.7014 9.99433L20.6955 9.964L20.6664 9.95467L20.6454 9.9745L20.6512 10.0048L20.6769 10.0142Z" fill="#FF39B0"/>
</svg>
