<svg width="50" height="50" viewBox="0 0 50 50" fill="none" xmlns="http://www.w3.org/2000/svg">
<path d="M12.5 34.375C12.5 33.5462 12.8292 32.7513 13.4153 32.1653C14.0013 31.5792 14.7962 31.25 15.625 31.25C16.4538 31.25 17.2487 31.5792 17.8347 32.1653C18.4208 32.7513 18.75 33.5462 18.75 34.375V37.5C18.75 38.3288 18.4208 39.1237 17.8347 39.7097C17.2487 40.2958 16.4538 40.625 15.625 40.625C14.7962 40.625 14.0013 40.2958 13.4153 39.7097C12.8292 39.1237 12.5 38.3288 12.5 37.5V34.375ZM31.25 21.875C31.25 21.0462 31.5792 20.2513 32.1653 19.6653C32.7513 19.0792 33.5462 18.75 34.375 18.75C35.2038 18.75 35.9987 19.0792 36.5847 19.6653C37.1708 20.2513 37.5 21.0462 37.5 21.875V37.5C37.5 38.3288 37.1708 39.1237 36.5847 39.7097C35.9987 40.2958 35.2038 40.625 34.375 40.625C33.5462 40.625 32.7513 40.2958 32.1653 39.7097C31.5792 39.1237 31.25 38.3288 31.25 37.5V21.875ZM21.875 28.125C21.875 27.2962 22.2042 26.5013 22.7903 25.9153C23.3763 25.3292 24.1712 25 25 25C25.8288 25 26.6237 25.3292 27.2097 25.9153C27.7958 26.5013 28.125 27.2962 28.125 28.125V37.5C28.125 38.3288 27.7958 39.1237 27.2097 39.7097C26.6237 40.2958 25.8288 40.625 25 40.625C24.1712 40.625 23.3763 40.2958 22.7903 39.7097C22.2042 39.1237 21.875 38.3288 21.875 37.5V28.125Z" fill="white"/>
<path d="M12.5 4.6875H9.375C7.7174 4.6875 6.12769 5.34598 4.95558 6.51808C3.78348 7.69018 3.125 9.2799 3.125 10.9375V43.75C3.125 45.4076 3.78348 46.9973 4.95558 48.1694C6.12769 49.3415 7.7174 50 9.375 50H40.625C42.2826 50 43.8723 49.3415 45.0444 48.1694C46.2165 46.9973 46.875 45.4076 46.875 43.75V10.9375C46.875 9.2799 46.2165 7.69018 45.0444 6.51808C43.8723 5.34598 42.2826 4.6875 40.625 4.6875H37.5V7.8125H40.625C41.4538 7.8125 42.2487 8.14174 42.8347 8.72779C43.4208 9.31384 43.75 10.1087 43.75 10.9375V43.75C43.75 44.5788 43.4208 45.3737 42.8347 45.9597C42.2487 46.5458 41.4538 46.875 40.625 46.875H9.375C8.5462 46.875 7.75134 46.5458 7.16529 45.9597C6.57924 45.3737 6.25 44.5788 6.25 43.75V10.9375C6.25 10.1087 6.57924 9.31384 7.16529 8.72779C7.75134 8.14174 8.5462 7.8125 9.375 7.8125H12.5V4.6875Z" fill="white"/>
<path d="M29.6875 3.125C30.1019 3.125 30.4993 3.28962 30.7924 3.58265C31.0854 3.87567 31.25 4.2731 31.25 4.6875V7.8125C31.25 8.2269 31.0854 8.62433 30.7924 8.91735C30.4993 9.21038 30.1019 9.375 29.6875 9.375H20.3125C19.8981 9.375 19.5007 9.21038 19.2076 8.91735C18.9146 8.62433 18.75 8.2269 18.75 7.8125V4.6875C18.75 4.2731 18.9146 3.87567 19.2076 3.58265C19.5007 3.28962 19.8981 3.125 20.3125 3.125H29.6875ZM20.3125 0C19.0693 0 17.877 0.49386 16.9979 1.37294C16.1189 2.25201 15.625 3.4443 15.625 4.6875V7.8125C15.625 9.0557 16.1189 10.248 16.9979 11.1271C17.877 12.0061 19.0693 12.5 20.3125 12.5H29.6875C30.9307 12.5 32.123 12.0061 33.0021 11.1271C33.8811 10.248 34.375 9.0557 34.375 7.8125V4.6875C34.375 3.4443 33.8811 2.25201 33.0021 1.37294C32.123 0.49386 30.9307 0 29.6875 0L20.3125 0Z" fill="white"/>
</svg>
