<svg width="29" height="27" viewBox="0 0 29 27" fill="none" xmlns="http://www.w3.org/2000/svg">
<path d="M24.2244 2.13109C24.2883 2.06555 24.3706 2.02091 24.4604 2.00306C24.5502 1.98521 24.6433 1.99498 24.7274 2.03109C24.8093 2.05869 24.8801 2.1121 24.9291 2.18331C24.9782 2.25452 25.0028 2.3397 24.9994 2.42609V2.78909L21.8534 5.93509C21.714 6.07439 21.6034 6.23979 21.528 6.42185C21.4525 6.6039 21.4137 6.79903 21.4137 6.99609C21.4137 7.19316 21.4525 7.38829 21.528 7.57034C21.6034 7.75239 21.714 7.91779 21.8534 8.05709L24.9994 11.2031V16.0691L26.8294 15.1541C26.8844 15.1261 26.9414 15.1021 26.9994 15.0821V2.42609C26.9994 0.174092 24.2874 -0.769908 22.8054 0.721093L18.5574 4.99609H9.56938L5.20238 0.715092C3.72238 -0.758907 0.999382 0.165092 0.999382 2.42509V15.0821C1.05738 15.1021 1.11438 15.1261 1.16938 15.1541L2.99938 16.0691V11.2031L6.14538 8.05709C6.28477 7.91779 6.39535 7.75239 6.47079 7.57034C6.54623 7.38829 6.58506 7.19316 6.58506 6.99609C6.58506 6.79903 6.54623 6.6039 6.47079 6.42185C6.39535 6.23979 6.28477 6.07439 6.14538 5.93509L2.99938 2.78909V2.42609C2.99643 2.33937 3.02175 2.25404 3.07154 2.18297C3.12132 2.1119 3.19287 2.05894 3.27538 2.03209C3.36167 1.9951 3.45707 1.98486 3.54924 2.00269C3.64141 2.02051 3.72611 2.06559 3.79238 2.13209L3.79938 2.14009L8.75238 6.99609H19.3894L24.2244 2.13109ZM24.9994 9.78909L22.5594 7.34909C22.4656 7.25533 22.413 7.12818 22.413 6.99559C22.413 6.86301 22.4656 6.73586 22.5594 6.64209L24.9994 4.20409V9.78909ZM5.43938 7.34909L2.99938 9.79009V4.20309L5.43938 6.64309C5.53312 6.73686 5.58578 6.86401 5.58578 6.99659C5.58578 7.12917 5.53312 7.25633 5.43938 7.35009M24.9994 19.4231V19.5691L26.9994 20.5691V18.4231L24.9994 19.4231ZM22.0814 24.9961C23.3094 24.9961 24.4364 24.0961 24.8414 22.8441L26.6394 23.7431C25.9164 25.5991 24.1774 26.9961 22.0814 26.9961H5.91738C3.81338 26.9961 2.04038 25.6361 1.33038 23.7571L3.13438 22.8561C3.51238 24.1081 4.64138 24.9961 5.91738 24.9961H22.0814ZM2.99938 19.5691L0.999382 20.5691V18.4231L2.99938 19.4231V19.5691Z" fill="white"/>
<path d="M8.99938 15.4961C8.99938 15.3261 9.05438 15.0601 9.20538 14.8511C9.33738 14.6671 9.56238 14.4961 9.99938 14.4961C10.4364 14.4961 10.6614 14.6661 10.7934 14.8511C10.9434 15.0601 10.9994 15.3261 10.9994 15.4961C10.9994 15.6287 11.0521 15.7559 11.1458 15.8496C11.2396 15.9434 11.3668 15.9961 11.4994 15.9961C11.632 15.9961 11.7592 15.9434 11.8529 15.8496C11.9467 15.7559 11.9994 15.6287 11.9994 15.4961C11.9994 15.1661 11.9044 14.6821 11.6054 14.2661C11.2874 13.8261 10.7624 13.4961 9.99938 13.4961C9.23638 13.4961 8.71138 13.8261 8.39338 14.2661C8.09338 14.6821 7.99938 15.1661 7.99938 15.4961C7.99938 15.6287 8.05206 15.7559 8.14583 15.8496C8.2396 15.9434 8.36677 15.9961 8.49938 15.9961C8.63199 15.9961 8.75917 15.9434 8.85293 15.8496C8.9467 15.7559 8.99938 15.6287 8.99938 15.4961ZM16.9994 15.4961C16.9994 15.3261 17.0544 15.0601 17.2054 14.8511C17.3374 14.6671 17.5624 14.4961 17.9994 14.4961C18.4364 14.4961 18.6614 14.6661 18.7934 14.8511C18.9434 15.0601 18.9994 15.3261 18.9994 15.4961C18.9994 15.6287 19.0521 15.7559 19.1458 15.8496C19.2396 15.9434 19.3668 15.9961 19.4994 15.9961C19.632 15.9961 19.7592 15.9434 19.8529 15.8496C19.9467 15.7559 19.9994 15.6287 19.9994 15.4961C19.9994 15.1661 19.9044 14.6821 19.6054 14.2661C19.2874 13.8261 18.7624 13.4961 17.9994 13.4961C17.2364 13.4961 16.7114 13.8261 16.3934 14.2661C16.0934 14.6821 15.9994 15.1661 15.9994 15.4961C15.9994 15.6287 16.0521 15.7559 16.1458 15.8496C16.2396 15.9434 16.3668 15.9961 16.4994 15.9961C16.632 15.9961 16.7592 15.9434 16.8529 15.8496C16.9467 15.7559 16.9994 15.6287 16.9994 15.4961ZM12.9564 15.9961H15.0424C15.1413 15.9961 15.238 16.0255 15.3203 16.0805C15.4025 16.1355 15.4666 16.2137 15.5044 16.3051C15.5421 16.3965 15.552 16.4971 15.5326 16.5941C15.5132 16.6911 15.4654 16.7802 15.3954 16.8501L14.3534 17.8921C14.3069 17.9387 14.2518 17.9756 14.191 18.0008C14.1303 18.026 14.0651 18.039 13.9994 18.039C13.9336 18.039 13.8685 18.026 13.8077 18.0008C13.747 17.9756 13.6918 17.9387 13.6454 17.8921L12.6034 16.8501C12.5333 16.7802 12.4856 16.6911 12.4662 16.5941C12.4468 16.4971 12.4566 16.3965 12.4944 16.3051C12.5322 16.2137 12.5963 16.1355 12.6785 16.0805C12.7607 16.0255 12.8574 15.9961 12.9564 15.9961ZM11.4994 19.9961C12.5424 19.9961 13.4624 19.6411 13.9994 19.1021C14.5364 19.6411 15.4554 19.9961 16.4994 19.9961C17.5314 19.9961 18.4414 19.6491 18.9814 19.1201C18.8614 19.8441 18.0534 23.4961 13.9994 23.4961C9.94538 23.4961 9.13738 19.8441 9.01738 19.1201C9.55738 19.6491 10.4674 19.9961 11.4994 19.9961ZM0.0523808 16.2721C0.111794 16.1538 0.215689 16.0639 0.341285 16.0221C0.466882 15.9803 0.60393 15.99 0.722381 16.0491L4.72238 18.0491C4.78399 18.0766 4.83941 18.1163 4.88528 18.1658C4.93115 18.2152 4.96653 18.2735 4.9893 18.337C5.01206 18.4005 5.02173 18.468 5.01774 18.5353C5.01374 18.6027 4.99615 18.6685 4.96603 18.7289C4.93591 18.7893 4.89388 18.8429 4.84248 18.8866C4.79107 18.9303 4.73136 18.9632 4.66692 18.9832C4.60249 19.0032 4.53467 19.01 4.46755 19.0031C4.40043 18.9962 4.3354 18.9758 4.27638 18.9431L0.276381 16.9431C0.157917 16.8839 0.0677968 16.78 0.0258005 16.6544C-0.0161958 16.5288 -0.00663618 16.3917 0.0523808 16.2731M0.0523808 22.7201C0.111794 22.8384 0.215689 22.9283 0.341285 22.9701C0.466882 23.0119 0.60393 23.0022 0.722381 22.9431L4.72238 20.9431C4.78399 20.9156 4.83941 20.8759 4.88528 20.8264C4.93115 20.777 4.96653 20.7187 4.9893 20.6552C5.01206 20.5917 5.02173 20.5242 5.01774 20.4569C5.01374 20.3895 4.99615 20.3237 4.96603 20.2633C4.93591 20.2029 4.89388 20.1493 4.84248 20.1056C4.79107 20.0619 4.73136 20.029 4.66692 20.009C4.60249 19.989 4.53467 19.9822 4.46755 19.9891C4.40043 19.996 4.3354 20.0164 4.27638 20.0491L0.276381 22.0491C0.157917 22.1083 0.0677968 22.2121 0.0258005 22.3378C-0.0161958 22.4634 -0.00663618 22.6005 0.0523808 22.7191M27.2764 16.0491C27.3353 16.0173 27.4 15.9977 27.4667 15.9914C27.5334 15.9851 27.6006 15.9923 27.6645 16.0125C27.7283 16.0326 27.7874 16.0655 27.8384 16.1089C27.8893 16.1524 27.931 16.2057 27.9609 16.2656C27.9909 16.3255 28.0085 16.3908 28.0127 16.4576C28.0169 16.5244 28.0077 16.5914 27.9855 16.6546C27.9634 16.7178 27.9288 16.7759 27.8837 16.8255C27.8387 16.875 27.7842 16.915 27.7234 16.9431L23.7234 18.9431C23.6646 18.9731 23.6005 18.9912 23.5347 18.9963C23.4689 19.0014 23.4028 18.9935 23.3401 18.9729C23.2774 18.9524 23.2194 18.9196 23.1694 18.8765C23.1194 18.8334 23.0785 18.7808 23.0489 18.7218C23.0193 18.6628 23.0017 18.5986 22.9971 18.5328C22.9925 18.4669 23.001 18.4008 23.022 18.3383C23.0431 18.2758 23.0763 18.218 23.1198 18.1684C23.1633 18.1187 23.2162 18.0782 23.2754 18.0491L27.2764 16.0491ZM27.9464 22.7201C27.887 22.8384 27.7831 22.9283 27.6575 22.9701C27.5319 23.0119 27.3948 23.0022 27.2764 22.9431L23.2764 20.9431C23.2156 20.915 23.1611 20.875 23.116 20.8255C23.071 20.7759 23.0364 20.7178 23.0142 20.6546C22.9921 20.5914 22.9828 20.5244 22.9871 20.4576C22.9913 20.3908 23.0089 20.3255 23.0388 20.2656C23.0688 20.2057 23.1105 20.1524 23.1614 20.1089C23.2123 20.0655 23.2715 20.0326 23.3353 20.0125C23.3991 19.9923 23.4664 19.9851 23.5331 19.9914C23.5997 19.9977 23.6644 20.0173 23.7234 20.0491L27.7234 22.0491C27.8417 22.1085 27.9316 22.2124 27.9734 22.338C28.0152 22.4636 28.0055 22.6006 27.9464 22.7191" fill="white"/>
</svg>
