<svg width="29" height="32" viewBox="0 0 29 32" fill="none" xmlns="http://www.w3.org/2000/svg">
<path d="M1 29C1 29.72 1.53245 30.3333 2.18322 30.3333H17.5651C18.2277 30.3333 18.7483 29.72 18.7483 29V27.6667H1V29ZM9.87417 11.6667C5.43709 11.6667 1 14.3333 1 19.6667H18.7483C18.7483 14.3333 14.3113 11.6667 9.87417 11.6667ZM4.10004 17C5.41342 14.9333 8.20583 14.3333 9.87417 14.3333C11.5425 14.3333 14.3349 14.9333 15.6483 17H4.10004ZM1 22.3333H18.7483V25H1V22.3333ZM21.1148 6.33333V1H18.7483V6.33333H12.8322L13.1044 9H24.416L22.7595 27.6667H21.1148V30.3333H23.1499C24.1438 30.3333 24.9603 29.4667 25.0786 28.3733L27.0309 6.33333H21.1148Z" fill="white"/>
</svg>
