<svg width="50" height="50" viewBox="0 0 50 50" fill="none" xmlns="http://www.w3.org/2000/svg">
<path d="M10.4167 27.0833V45.8333H6.25V27.0833H10.4167ZM47.9167 27.0833V31.25H43.75V45.8333H39.5833V31.25H35.4167V27.0833H47.9167ZM25 22.9167C27.919 22.9322 30.776 23.7612 33.25 25.3104L36.2646 22.2896C32.956 19.9937 29.0271 18.7591 25 18.75C21.0265 18.7578 17.1501 19.9789 13.8896 22.25L16.9083 25.2771C19.3321 23.7498 22.1352 22.9321 25 22.9167Z" fill="black"/>
<path d="M25 14.5833C30.1298 14.5939 35.1207 16.2517 39.2375 19.3125L42.2104 16.3333C37.2894 12.5054 31.2345 10.4238 25 10.4166C18.8195 10.4245 12.8181 12.4933 7.9458 16.2958L10.9166 19.275C14.9853 16.239 19.9234 14.5939 25 14.5833Z" fill="black"/>
<path d="M25 6.25C32.3397 6.25113 39.4593 8.75734 45.1813 13.3542L48.1542 10.3771C41.6579 5.0216 33.5026 2.08985 25.0834 2.08338C16.6643 2.07692 8.50446 4.99616 2 10.3417L4.97292 13.3188C10.6466 8.74659 17.7133 6.25232 25 6.25ZM25 27.0833C23.1458 27.0833 21.3332 27.6332 19.7915 28.6633C18.2498 29.6934 17.0482 31.1576 16.3386 32.8707C15.6291 34.5837 15.4434 36.4687 15.8051 38.2873C16.1669 40.1059 17.0598 41.7763 18.3709 43.0875C19.682 44.3986 21.3525 45.2915 23.171 45.6532C24.9896 46.0149 26.8746 45.8293 28.5877 45.1197C30.3007 44.4101 31.7649 43.2085 32.795 41.6668C33.8252 40.1251 34.375 38.3125 34.375 36.4583C34.375 33.9719 33.3873 31.5874 31.6291 29.8292C29.871 28.0711 27.4864 27.0833 25 27.0833ZM25 41.6667C23.9699 41.6667 22.9629 41.3612 22.1064 40.7889C21.2499 40.2166 20.5823 39.4032 20.1881 38.4515C19.7939 37.4998 19.6908 36.4526 19.8917 35.4422C20.0927 34.4319 20.5888 33.5039 21.3172 32.7755C22.0455 32.0471 22.9736 31.551 23.9839 31.3501C24.9942 31.1491 26.0414 31.2523 26.9931 31.6465C27.9448 32.0407 28.7583 32.7082 29.3306 33.5647C29.9029 34.4212 30.2083 35.4282 30.2083 36.4583C30.2083 37.8397 29.6596 39.1644 28.6828 40.1412C27.7061 41.1179 26.3813 41.6667 25 41.6667Z" fill="black"/>
</svg>
