<svg width="50" height="50" viewBox="0 0 50 50" fill="none" xmlns="http://www.w3.org/2000/svg">
<path d="M25 4.16663C27.7358 4.16663 30.4449 4.7055 32.9725 5.75247C35.5001 6.79944 37.7968 8.33401 39.7313 10.2686C41.6659 12.2031 43.2005 14.4998 44.2474 17.0274C45.2944 19.555 45.8333 22.2641 45.8333 25C45.8333 30.5253 43.6384 35.8243 39.7313 39.7313C35.8243 43.6384 30.5253 45.8333 25 45.8333C22.2641 45.8333 19.555 45.2944 17.0274 44.2474C14.4998 43.2005 12.2031 41.6659 10.2686 39.7313C6.36156 35.8243 4.16663 30.5253 4.16663 25C4.16663 19.4746 6.36156 14.1756 10.2686 10.2686C14.1756 6.36156 19.4746 4.16663 25 4.16663ZM25 8.33329C20.5797 8.33329 16.3405 10.0892 13.2148 13.2148C10.0892 16.3405 8.33329 20.5797 8.33329 25C8.33329 29.4202 10.0892 33.6595 13.2148 36.7851C16.3405 39.9107 20.5797 41.6666 25 41.6666C29.4202 41.6666 33.6595 39.9107 36.7851 36.7851C39.9107 33.6595 41.6666 29.4202 41.6666 25C41.6666 20.5797 39.9107 16.3405 36.7851 13.2148C33.6595 10.0892 29.4202 8.33329 25 8.33329ZM33.3333 20.8333V35.4166C33.3333 35.9692 33.1138 36.4991 32.7231 36.8898C32.3324 37.2805 31.8025 37.5 31.25 37.5H18.75C18.1974 37.5 17.6675 37.2805 17.2768 36.8898C16.8861 36.4991 16.6666 35.9692 16.6666 35.4166V20.8333H33.3333ZM28.125 12.5L30.2083 14.5833H35.4166V18.75H14.5833V14.5833H19.7916L21.875 12.5H28.125Z" fill="#FF0000"/>
</svg>
