<svg width="50" height="50" viewBox="0 0 50 50" fill="none" xmlns="http://www.w3.org/2000/svg">
<path d="M14.5833 31.125L27.2083 18.5L31.5 22.7916L18.875 35.4166H14.5833V31.125ZM25 41.6666C29.4202 41.6666 33.6595 39.9107 36.7851 36.7851C39.9107 33.6595 41.6666 29.4202 41.6666 25C41.6666 20.5797 39.9107 16.3405 36.7851 13.2148C33.6595 10.0892 29.4202 8.33329 25 8.33329C20.5797 8.33329 16.3405 10.0892 13.2148 13.2148C10.0892 16.3405 8.33329 20.5797 8.33329 25C8.33329 29.4202 10.0892 33.6595 13.2148 36.7851C16.3405 39.9107 20.5797 41.6666 25 41.6666ZM34.7916 19.4791L32.7083 21.5625L28.4375 17.2916L30.5208 15.2083C30.9583 14.75 31.6875 14.75 32.125 15.2083L34.7916 17.875C35.25 18.3125 35.25 19.0416 34.7916 19.4791ZM25 4.16663C27.7358 4.16663 30.4449 4.7055 32.9725 5.75247C35.5002 6.79944 37.7968 8.33401 39.7314 10.2686C41.6659 12.2031 43.2005 14.4998 44.2475 17.0274C45.2944 19.555 45.8333 22.2641 45.8333 25C45.8333 30.5253 43.6384 35.8243 39.7314 39.7314C35.8243 43.6384 30.5253 45.8333 25 45.8333C22.2641 45.8333 19.555 45.2944 17.0274 44.2475C14.4998 43.2005 12.2031 41.6659 10.2686 39.7314C6.36156 35.8243 4.16663 30.5253 4.16663 25C4.16663 19.4746 6.36156 14.1756 10.2686 10.2686C14.1756 6.36156 19.4746 4.16663 25 4.16663Z" fill="#508BF5"/>
</svg>
