<svg width="18" height="18" viewBox="0 0 18 18" fill="none" xmlns="http://www.w3.org/2000/svg">
<rect width="18" height="18" fill="black"/>
<path d="M15.1875 2.0625H2.8125C2.61359 2.0625 2.42282 2.14152 2.28217 2.28217C2.14152 2.42282 2.0625 2.61359 2.0625 2.8125V15.1875C2.0625 15.3864 2.14152 15.5772 2.28217 15.7178C2.42282 15.8585 2.61359 15.9375 2.8125 15.9375H15.1875C15.3864 15.9375 15.5772 15.8585 15.7178 15.7178C15.8585 15.5772 15.9375 15.3864 15.9375 15.1875V2.8125C15.9375 2.61359 15.8585 2.42282 15.7178 2.28217C15.5772 2.14152 15.3864 2.0625 15.1875 2.0625Z" stroke="white" stroke-linecap="round" stroke-linejoin="round"/>
<path d="M7.63987 4.3125H13.8281V6.1875H7.63987V4.3125ZM7.63987 8.0625H13.8281V9.9375H7.63987V8.0625ZM7.63987 11.8125H13.8281V13.6875H7.63987V11.8125ZM4.17188 4.31288H6.04688V6.18787H4.17188V4.31288ZM4.17188 8.0625H6.04688V9.9375H4.17188V8.0625ZM4.17188 11.8125H6.04688V13.6875H4.17188V11.8125Z" stroke="white" stroke-linecap="round" stroke-linejoin="round"/>
</svg>
