<?xml version="1.0" encoding="UTF-8"?>
<svg xmlns="http://www.w3.org/2000/svg" xmlns:xlink="http://www.w3.org/1999/xlink" width="24px" height="24px" viewBox="0 0 24 24" version="1.1">
<g id="surface1">
<path style=" stroke:none;fill-rule:nonzero;fill:rgb(0%,0%,0%);fill-opacity:1;" d="M 22.761719 10.230469 L 17.8125 5.28125 L 16.398438 6.699219 L 20.699219 11 L 6.617188 11 L 6.617188 13 L 20.699219 13 L 16.398438 17.300781 L 17.8125 18.714844 L 22.765625 13.765625 C 23.234375 13.296875 23.496094 12.660156 23.496094 11.996094 C 23.496094 11.332031 23.234375 10.695312 22.765625 10.226562 Z M 22.761719 10.230469 "/>
<path style=" stroke:none;fill-rule:nonzero;fill:rgb(0%,0%,0%);fill-opacity:1;" d="M 10.476562 21 C 10.476562 21.550781 10.027344 22 9.476562 22 L 3 22 C 2.449219 22 2 21.550781 2 21 L 2 3 C 2 2.449219 2.449219 2 3 2 L 9.476562 2 C 10.027344 2 10.476562 2.449219 10.476562 3 L 10.476562 8.332031 L 12.476562 8.332031 L 12.476562 3 C 12.476562 1.34375 11.132812 0 9.476562 0 L 3 0 C 1.34375 0 0 1.34375 0 3 L 0 21 C 0 22.65625 1.34375 24 3 24 L 9.476562 24 C 11.132812 24 12.476562 22.65625 12.476562 21 L 12.476562 15.667969 L 10.476562 15.667969 Z M 10.476562 21 "/>
</g>
</svg>
