<?xml version="1.0" encoding="UTF-8"?>
<svg xmlns="http://www.w3.org/2000/svg" xmlns:xlink="http://www.w3.org/1999/xlink" width="24px" height="24px" viewBox="0 0 24 24" version="1.1">
<g id="surface1">
<path style=" stroke:none;fill-rule:nonzero;fill:rgb(0%,0%,0%);fill-opacity:1;" d="M 23.117188 9.878906 L 18.167969 4.929688 L 16.046875 7.050781 L 19.5 10.5 L 6.617188 10.5 L 6.617188 13.5 L 19.5 13.5 L 16.050781 16.949219 L 18.171875 19.070312 L 23.121094 14.121094 C 24.292969 12.949219 24.289062 11.050781 23.117188 9.878906 Z M 23.117188 9.878906 "/>
<path style=" stroke:none;fill-rule:nonzero;fill:rgb(0%,0%,0%);fill-opacity:1;" d="M 9.992188 20.5 C 9.992188 20.777344 9.769531 21 9.492188 21 L 3.507812 21 C 3.230469 21 3.007812 20.777344 3.007812 20.5 L 3.007812 3.53125 C 3.007812 3.253906 3.230469 3.03125 3.507812 3.03125 L 9.492188 3.03125 C 9.769531 3.03125 9.992188 3.253906 9.992188 3.53125 L 9.992188 8.34375 L 12.992188 8.34375 L 12.992188 3.53125 C 12.992188 1.597656 11.425781 0.0351562 9.492188 0.03125 L 3.507812 0.03125 C 1.574219 0.0351562 0.0078125 1.597656 0.0078125 3.53125 L 0.0078125 20.5 C 0.0078125 22.433594 1.574219 24 3.507812 24 L 9.492188 24 C 11.425781 24 12.992188 22.433594 12.992188 20.5 L 12.992188 15.683594 L 9.992188 15.683594 Z M 9.992188 20.5 "/>
</g>
</svg>
