<svg width="20" height="20" viewBox="0 0 20 20" fill="none" xmlns="http://www.w3.org/2000/svg">
<path opacity="0.4" d="M14.334 0H5.665C2.276 0 0 2.378 0 5.917V14.084C0 17.622 2.276 20 5.665 20H14.333C17.722 20 20 17.622 20 14.084V5.917C20 2.378 17.723 0 14.334 0Z" fill="#266EF1"/>
<path d="M7.2626 6.84627C7.31597 6.79345 7.35783 6.73014 7.38552 6.66034C7.41322 6.59054 7.42615 6.51575 7.4235 6.44071C7.42085 6.36566 7.40268 6.29197 7.37014 6.22429C7.33759 6.15661 7.29138 6.09641 7.23441 6.04749C6.94773 5.80281 6.5835 5.66785 6.2066 5.66663L6.12357 5.66891H6.11139C5.25191 5.72122 4.5816 6.4677 4.58338 7.3678C4.58338 7.85022 4.7865 8.10565 4.94697 8.31004C4.99199 8.3672 5.04844 8.41433 5.1127 8.44843C5.17697 8.48253 5.24765 8.50285 5.32021 8.50809C5.32681 8.50809 5.33799 8.50936 5.37099 8.50936C5.43627 8.50926 5.50084 8.49597 5.56084 8.47026C5.62084 8.44456 5.67502 8.40699 5.72012 8.35981L7.2626 6.84627ZM13.6153 5.66942L13.5323 5.66688H13.5191C13.1419 5.66786 12.7772 5.80284 12.4903 6.04774C12.4334 6.09666 12.3872 6.15684 12.3547 6.22447C12.3223 6.2921 12.3041 6.36573 12.3015 6.44071C12.2988 6.5157 12.3117 6.59042 12.3394 6.66017C12.367 6.72993 12.4088 6.79321 12.4621 6.84602L14.0051 8.36057C14.0503 8.40792 14.1046 8.44561 14.1648 8.47136C14.225 8.49711 14.2898 8.51038 14.3552 8.51038C14.3877 8.51038 14.3989 8.51038 14.406 8.50911C14.4785 8.50383 14.5491 8.4835 14.6134 8.4494C14.6776 8.4153 14.734 8.36818 14.779 8.31106C14.9405 8.10666 15.1416 7.852 15.1426 7.36881C15.1441 6.4677 14.4738 5.72122 13.6153 5.66942Z" fill="#266EF1"/>
<path d="M10.0018 5.9375C7.53886 5.9375 5.533 7.94209 5.533 10.4063C5.53213 11.451 5.89895 12.4628 6.56919 13.2642L5.65208 14.1816C5.61346 14.2191 5.58269 14.2639 5.56155 14.3135C5.54041 14.363 5.52932 14.4162 5.52894 14.4701C5.52856 14.5239 5.53889 14.5773 5.55932 14.6271C5.57976 14.6769 5.6099 14.7222 5.64798 14.7603C5.68607 14.7983 5.73134 14.8285 5.78117 14.8489C5.831 14.8693 5.88439 14.8796 5.93824 14.8792C5.99209 14.8788 6.04532 14.8677 6.09483 14.8465C6.14435 14.8254 6.18916 14.7946 6.22667 14.7559L7.14378 13.8388C7.94566 14.5083 8.95713 14.875 10.0018 14.875C11.0464 14.875 12.0578 14.5083 12.8597 13.8388L13.7771 14.7559C13.8146 14.7946 13.8594 14.8254 13.9089 14.8465C13.9584 14.8677 14.0117 14.8788 14.0655 14.8792C14.1194 14.8796 14.1728 14.8693 14.2226 14.8489C14.2724 14.8285 14.3177 14.7983 14.3558 14.7603C14.3939 14.7222 14.424 14.6769 14.4444 14.6271C14.4649 14.5773 14.4752 14.5239 14.4748 14.4701C14.4744 14.4162 14.4633 14.363 14.4422 14.3135C14.4211 14.2639 14.3903 14.2191 14.3517 14.1816L13.4343 13.2642C14.1047 12.4628 14.4715 11.451 14.4705 10.4063C14.4705 7.94336 12.4659 5.9375 10.0018 5.9375ZM10.408 10.4063C10.408 10.514 10.3652 10.6173 10.289 10.6935C10.2128 10.7697 10.1095 10.8125 10.0018 10.8125H7.9705C7.86276 10.8125 7.75943 10.7697 7.68324 10.6935C7.60705 10.6173 7.56425 10.514 7.56425 10.4063C7.56425 10.2985 7.60705 10.1952 7.68324 10.119C7.75943 10.0428 7.86276 10 7.9705 10H9.5955V7.5625C9.5955 7.45476 9.6383 7.35142 9.71449 7.27524C9.79067 7.19905 9.89401 7.15625 10.0018 7.15625C10.1095 7.15625 10.2128 7.19905 10.289 7.27524C10.3652 7.35142 10.408 7.45476 10.408 7.5625V10.4063Z" fill="#266EF1"/>
</svg>
