<?xml version="1.0" encoding="UTF-8"?>
<svg xmlns="http://www.w3.org/2000/svg" xmlns:xlink="http://www.w3.org/1999/xlink" width="24px" height="24px" viewBox="0 0 24 24" version="1.1">
<g id="surface1">
<path style=" stroke:none;fill-rule:nonzero;fill:rgb(0%,0%,0%);fill-opacity:1;" d="M 1.605469 18 C 2.433594 19.4375 4.269531 19.929688 5.703125 19.101562 C 5.707031 19.101562 5.707031 19.101562 5.707031 19.101562 L 6.152344 18.84375 C 6.992188 19.5625 7.957031 20.117188 9 20.488281 L 9 21 C 9 22.65625 10.34375 24 12 24 C 13.65625 24 15 22.65625 15 21 L 15 20.488281 C 16.042969 20.117188 17.007812 19.558594 17.847656 18.839844 L 18.296875 19.097656 C 19.730469 19.925781 21.566406 19.433594 22.394531 18 C 23.222656 16.5625 22.730469 14.726562 21.296875 13.898438 L 20.851562 13.644531 C 21.050781 12.554688 21.050781 11.441406 20.851562 10.351562 L 21.296875 10.097656 C 22.730469 9.269531 23.222656 7.433594 22.394531 5.996094 C 21.566406 4.5625 19.730469 4.070312 18.296875 4.898438 L 17.851562 5.152344 C 17.007812 4.4375 16.042969 3.878906 15 3.511719 L 15 3 C 15 1.34375 13.65625 0 12 0 C 10.34375 0 9 1.34375 9 3 L 9 3.511719 C 7.957031 3.882812 6.992188 4.441406 6.152344 5.160156 L 5.703125 4.898438 C 4.269531 4.070312 2.433594 4.5625 1.605469 6 C 0.777344 7.4375 1.269531 9.273438 2.703125 10.101562 L 3.148438 10.355469 C 2.949219 11.445312 2.949219 12.558594 3.148438 13.644531 L 2.703125 13.902344 C 1.273438 14.734375 0.78125 16.566406 1.605469 18 Z M 12 8 C 14.210938 8 16 9.789062 16 12 C 16 14.210938 14.210938 16 12 16 C 9.789062 16 8 14.210938 8 12 C 8 9.789062 9.789062 8 12 8 Z M 12 8 "/>
</g>
</svg>
