<?xml version="1.0" encoding="UTF-8"?>
<svg xmlns="http://www.w3.org/2000/svg" xmlns:xlink="http://www.w3.org/1999/xlink" width="24px" height="24px" viewBox="0 0 24 24" version="1.1">
<g id="surface1">
<path style=" stroke:none;fill-rule:nonzero;fill:rgb(0%,0%,0%);fill-opacity:1;" d="M 12 8 C 9.789062 8 8 9.789062 8 12 C 8 14.210938 9.789062 16 12 16 C 14.210938 16 16 14.210938 16 12 C 16 9.789062 14.210938 8 12 8 Z M 12 14 C 10.894531 14 10 13.105469 10 12 C 10 10.894531 10.894531 10 12 10 C 13.105469 10 14 10.894531 14 12 C 14 13.105469 13.105469 14 12 14 Z M 12 14 "/>
<path style=" stroke:none;fill-rule:nonzero;fill:rgb(0%,0%,0%);fill-opacity:1;" d="M 21.292969 13.898438 L 20.851562 13.644531 C 21.050781 12.554688 21.050781 11.441406 20.851562 10.355469 L 21.292969 10.097656 C 22.730469 9.269531 23.222656 7.433594 22.394531 5.996094 C 21.566406 4.5625 19.730469 4.070312 18.292969 4.898438 L 17.847656 5.15625 C 17.007812 4.4375 16.042969 3.878906 15 3.511719 L 15 3 C 15 1.34375 13.65625 0 12 0 C 10.34375 0 9 1.34375 9 3 L 9 3.511719 C 7.957031 3.882812 6.992188 4.441406 6.152344 5.160156 L 5.703125 4.898438 C 4.269531 4.070312 2.433594 4.5625 1.605469 6 C 0.777344 7.4375 1.269531 9.273438 2.703125 10.101562 L 3.148438 10.355469 C 2.949219 11.445312 2.949219 12.558594 3.148438 13.644531 L 2.703125 13.902344 C 1.269531 14.730469 0.777344 16.566406 1.605469 18.003906 C 2.433594 19.4375 4.269531 19.929688 5.703125 19.101562 L 6.148438 18.84375 C 6.992188 19.5625 7.957031 20.121094 9 20.488281 L 9 21 C 9 22.65625 10.34375 24 12 24 C 13.65625 24 15 22.65625 15 21 L 15 20.488281 C 16.042969 20.117188 17.007812 19.558594 17.847656 18.839844 L 18.296875 19.097656 C 19.730469 19.925781 21.566406 19.433594 22.394531 18 C 23.222656 16.5625 22.730469 14.726562 21.296875 13.898438 Z M 18.746094 10.125 C 19.085938 11.351562 19.085938 12.648438 18.746094 13.875 C 18.625 14.3125 18.816406 14.777344 19.210938 15.007812 L 20.292969 15.632812 C 20.773438 15.910156 20.9375 16.519531 20.660156 17 C 20.382812 17.476562 19.773438 17.640625 19.292969 17.367188 L 18.207031 16.738281 C 17.8125 16.507812 17.3125 16.578125 16.992188 16.902344 C 16.101562 17.8125 14.980469 18.460938 13.75 18.777344 C 13.308594 18.890625 13 19.289062 13 19.746094 L 13 21 C 13 21.550781 12.550781 22 12 22 C 11.445312 22 11 21.550781 11 21 L 11 19.746094 C 11 19.292969 10.691406 18.894531 10.246094 18.777344 C 9.015625 18.460938 7.894531 17.808594 7.007812 16.898438 C 6.6875 16.574219 6.1875 16.507812 5.789062 16.734375 L 4.707031 17.363281 C 4.398438 17.542969 4.015625 17.546875 3.703125 17.367188 C 3.390625 17.1875 3.199219 16.855469 3.203125 16.496094 C 3.203125 16.136719 3.394531 15.808594 3.707031 15.628906 L 4.789062 15.003906 C 5.1875 14.777344 5.375 14.308594 5.253906 13.871094 C 4.917969 12.644531 4.917969 11.347656 5.253906 10.121094 C 5.375 9.683594 5.183594 9.21875 4.789062 8.992188 L 3.707031 8.367188 C 3.226562 8.089844 3.0625 7.476562 3.339844 7 C 3.617188 6.519531 4.226562 6.355469 4.707031 6.632812 L 5.792969 7.261719 C 6.1875 7.492188 6.683594 7.425781 7.007812 7.101562 C 7.894531 6.191406 9.015625 5.542969 10.25 5.226562 C 10.691406 5.109375 11.003906 4.710938 11 4.253906 L 11 3 C 11 2.449219 11.449219 2 12 2 C 12.550781 2 13 2.449219 13 3 L 13 4.253906 C 13 4.707031 13.308594 5.105469 13.75 5.222656 C 14.984375 5.539062 16.105469 6.191406 16.992188 7.101562 C 17.3125 7.425781 17.8125 7.492188 18.210938 7.265625 L 19.292969 6.636719 C 19.601562 6.457031 19.984375 6.453125 20.296875 6.632812 C 20.609375 6.8125 20.800781 7.144531 20.796875 7.503906 C 20.796875 7.863281 20.605469 8.191406 20.292969 8.371094 L 19.210938 8.996094 C 18.816406 9.222656 18.625 9.6875 18.746094 10.125 Z M 18.746094 10.125 "/>
</g>
</svg>
