<svg width="19" height="19" viewBox="0 0 19 19" fill="none" xmlns="http://www.w3.org/2000/svg">
<path d="M9.5 17.8125C4.91625 17.8125 1.1875 14.0837 1.1875 9.5C1.1875 4.91625 4.91625 1.1875 9.5 1.1875C14.0837 1.1875 17.8125 4.91625 17.8125 9.5C17.8125 14.0837 14.0837 17.8125 9.5 17.8125ZM9.5 2.375C5.56938 2.375 2.375 5.56938 2.375 9.5C2.375 13.4306 5.56938 16.625 9.5 16.625C13.4306 16.625 16.625 13.4306 16.625 9.5C16.625 5.56938 13.4306 2.375 9.5 2.375Z" fill="black"/>
<path d="M9.5 13.6562C9.1675 13.6562 8.90625 13.395 8.90625 13.0625V5.9375C8.90625 5.605 9.1675 5.34375 9.5 5.34375C9.8325 5.34375 10.0938 5.605 10.0938 5.9375V13.0625C10.0938 13.395 9.8325 13.6562 9.5 13.6562Z" fill="black"/>
<path d="M13.0625 10.0938H5.9375C5.605 10.0938 5.34375 9.8325 5.34375 9.5C5.34375 9.1675 5.605 8.90625 5.9375 8.90625H13.0625C13.395 8.90625 13.6562 9.1675 13.6562 9.5C13.6562 9.8325 13.395 10.0938 13.0625 10.0938Z" fill="black"/>
</svg>
