<svg width="20" height="20" viewBox="0 0 20 20" fill="none" xmlns="http://www.w3.org/2000/svg">
<path opacity="0.4" d="M14.334 0H5.665C2.276 0 0 2.378 0 5.917V14.084C0 17.622 2.276 20 5.665 20H14.333C17.722 20 20 17.622 20 14.084V5.917C20 2.378 17.723 0 14.334 0Z" fill="#266EF1"/>
<path d="M16.7026 13.8189L13.5008 10.6172C12.8692 9.98565 11.9259 9.86261 11.1658 10.2372L8.25108 7.32263V5.62474L4.75127 3L3.00137 4.74983L5.62622 8.24949H7.32417L10.2389 11.164C9.867 11.9241 9.98731 12.8674 10.6189 13.499L13.8207 16.7006C14.2199 17.0998 14.8652 17.0998 15.2616 16.7006L16.7026 15.2597C17.099 14.8606 17.099 14.2153 16.7026 13.8189ZM12.0708 9.15174C12.8446 9.15174 13.5719 9.4525 14.1187 9.99932L14.6492 10.5297C15.0812 10.3411 15.4913 10.0786 15.8467 9.72317C16.8611 8.70882 17.2057 7.28161 16.883 5.98565C16.8229 5.73958 16.5139 5.65482 16.3334 5.83527L14.2992 7.86945L12.4426 7.56049L12.1337 5.70403L14.1679 3.66986C14.3484 3.48941 14.2609 3.18045 14.0121 3.11757C12.7161 2.79768 11.2888 3.14217 10.2771 4.15379C9.49788 4.93301 9.13149 5.96104 9.15063 6.98633L11.3954 9.23103C11.6169 9.17908 11.8466 9.15174 12.0708 9.15174ZM9.22993 11.3937L7.67962 9.84347L3.51267 14.013C2.82911 14.6965 2.82911 15.8038 3.51267 16.4874C4.19622 17.1709 5.30358 17.1709 5.98714 16.4874L9.36664 13.108C9.15884 12.5639 9.09595 11.9706 9.22993 11.3937ZM4.75127 15.905C4.39035 15.905 4.09506 15.6097 4.09506 15.2488C4.09506 14.8852 4.38762 14.5926 4.75127 14.5926C5.11492 14.5926 5.40748 14.8852 5.40748 15.2488C5.40748 15.6097 5.11492 15.905 4.75127 15.905Z" fill="#266EF1"/>
</svg>
