<svg width="20" height="20" viewBox="0 0 20 20" fill="none" xmlns="http://www.w3.org/2000/svg">
<path opacity="0.4" d="M14.334 0H5.665C2.276 0 0 2.378 0 5.917V14.084C0 17.622 2.276 20 5.665 20H14.333C17.722 20 20 17.622 20 14.084V5.917C20 2.378 17.723 0 14.334 0Z" fill="#266EF1"/>
<path d="M14.7875 12.7278L12.5006 10.4409C12.0494 9.98975 11.3756 9.90187 10.8327 10.1694L8.75077 8.08759V6.87482L6.25091 5L5.00098 6.24988L6.87587 8.74963H8.0887L10.1706 10.8315C9.905 11.3744 9.99093 12.0481 10.4421 12.4993L12.7291 14.7862C13.0142 15.0713 13.4751 15.0713 13.7583 14.7862L14.7875 13.757C15.0707 13.4718 15.0707 13.0109 14.7875 12.7278ZM11.4791 9.3941C12.0318 9.3941 12.5513 9.60892 12.9419 9.99951L13.3208 10.3784C13.6294 10.2436 13.9224 10.0561 14.1762 9.80227C14.9008 9.07773 15.1469 8.0583 14.9164 7.1326C14.8735 6.95684 14.6528 6.8963 14.5239 7.02519L13.0708 8.47818L11.7447 8.25749L11.5241 6.93145L12.9771 5.47847C13.106 5.34958 13.0435 5.12889 12.8658 5.08398C11.94 4.85548 10.9206 5.10155 10.198 5.82414C9.64134 6.38072 9.37964 7.11503 9.39331 7.84738L10.9967 9.45074C11.1549 9.41363 11.319 9.3941 11.4791 9.3941ZM9.44995 10.9955L8.34259 9.88819L5.36619 12.8664C4.87794 13.3547 4.87794 14.1456 5.36619 14.6338C5.85444 15.1221 6.64542 15.1221 7.13367 14.6338L9.5476 12.22C9.39917 11.8314 9.35425 11.4076 9.44995 10.9955ZM6.25091 14.2178C5.99311 14.2178 5.78218 14.0069 5.78218 13.7491C5.78218 13.4894 5.99116 13.2804 6.25091 13.2804C6.51066 13.2804 6.71963 13.4894 6.71963 13.7491C6.71963 14.0069 6.51066 14.2178 6.25091 14.2178Z" fill="#266EF1"/>
</svg>
