<svg width="24" height="24" viewBox="0 0 24 24" fill="none" xmlns="http://www.w3.org/2000/svg">
<path d="M11.1 9C10.1833 9 9.28333 9.12933 8.4 9.388C7.51667 9.64667 6.7 10.034 5.95 10.55L7 20H17L18.1 10H17.4C16.7667 10 16.1917 9.954 15.675 9.862C15.1583 9.77 14.45 9.591 13.55 9.325C13.1667 9.20833 12.7667 9.125 12.35 9.075C11.9333 9.025 11.5167 9 11.1 9ZM5.7 8.375C6.55 7.925 7.42933 7.58333 8.338 7.35C9.24667 7.11667 10.1757 7 11.125 7C11.625 7 12.121 7.03333 12.613 7.1C13.105 7.16667 13.5923 7.26667 14.075 7.4C14.9083 7.63333 15.546 7.79167 15.988 7.875C16.43 7.95833 16.9007 8 17.4 8H18.325L18.75 4H5.25L5.7 8.375ZM6.975 22C6.45833 22 6.01267 21.8333 5.638 21.5C5.26333 21.1667 5.05067 20.7417 5 20.225L3 2H21L19 20.225C18.95 20.7417 18.7373 21.1667 18.362 21.5C17.9867 21.8333 17.541 22 17.025 22H6.975ZM11.1 20H17H7H11.1Z" fill="white"/>
</svg>
